<?xml version="1.0" encoding="UTF-8" standalone="no"?>
<!DOCTYPE svg PUBLIC "-//W3C//DTD SVG 1.1//EN"
 "http://www.w3.org/Graphics/SVG/1.1/DTD/svg11.dtd">
<!-- Generated by graphviz version 7.1.0 (0)
 -->
<!-- Title: AnsibleDs389Server Pages: 1 -->
<svg width="668pt" height="332pt"
 viewBox="0.00 0.00 667.50 332.00" xmlns="http://www.w3.org/2000/svg" xmlns:xlink="http://www.w3.org/1999/xlink">
<g id="graph0" class="graph" transform="scale(1 1) rotate(0) translate(4 328)">
<title>AnsibleDs389Server</title>
<polygon fill="white" stroke="none" points="-4,4 -4,-328 663.5,-328 663.5,4 -4,4"/>
<!-- title -->
<g id="node1" class="node">
<title>title</title>
<text text-anchor="middle" x="172" y="-301.6" font-family="Times,serif" font-size="18.00">389ds configuration through ansible</text>
</g>
<!-- inventory -->
<g id="node2" class="node">
<title>inventory</title>
<path fill="none" stroke="red" d="M448,-320.73C448,-322.53 428.73,-324 405,-324 381.27,-324 362,-322.53 362,-320.73 362,-320.73 362,-291.27 362,-291.27 362,-289.47 381.27,-288 405,-288 428.73,-288 448,-289.47 448,-291.27 448,-291.27 448,-320.73 448,-320.73"/>
<path fill="none" stroke="red" d="M448,-320.73C448,-318.92 428.73,-317.45 405,-317.45 381.27,-317.45 362,-318.92 362,-320.73"/>
<text text-anchor="middle" x="405" y="-302.3" font-family="Times,serif" font-size="14.00">Inventory</text>
</g>
<!-- playbook -->
<g id="node3" class="node">
<title>playbook</title>
<polygon fill="none" stroke="red" points="445.5,-252 364.5,-252 364.5,-216 445.5,-216 445.5,-252"/>
<text text-anchor="middle" x="405" y="-230.3" font-family="Times,serif" font-size="14.00">Playbook</text>
</g>
<!-- inventory&#45;&gt;playbook -->
<g id="edge1" class="edge">
<title>inventory&#45;&gt;playbook</title>
<path fill="none" stroke="black" d="M405,-287.7C405,-280.41 405,-271.73 405,-263.54"/>
<polygon fill="black" stroke="black" points="408.5,-263.62 405,-253.62 401.5,-263.62 408.5,-263.62"/>
</g>
<!-- ds389_server -->
<g id="node4" class="node">
<title>ds389_server</title>
<polygon fill="none" stroke="red" points="365,-180 155,-180 155,-144 365,-144 365,-180"/>
<text text-anchor="middle" x="260" y="-158.3" font-family="Times,serif" font-size="14.00">ds389_server action plugin</text>
</g>
<!-- inventory&#45;&gt;ds389_server -->
<g id="edge2" class="edge">
<title>inventory&#45;&gt;ds389_server</title>
<path fill="none" stroke="black" d="M387.22,-287.59C361.75,-262.65 314.75,-216.62 285.56,-188.03"/>
<polygon fill="black" stroke="black" points="288.15,-185.67 278.55,-181.17 283.25,-190.67 288.15,-185.67"/>
</g>
<!-- ds389_info -->
<g id="node5" class="node">
<title>ds389_info</title>
<polygon fill="none" stroke="red" points="565,-180 383,-180 383,-144 565,-144 565,-180"/>
<text text-anchor="middle" x="474" y="-158.3" font-family="Times,serif" font-size="14.00">ds389_info facts plugin</text>
</g>
<!-- inventory&#45;&gt;ds389_info -->
<g id="edge5" class="edge">
<title>inventory&#45;&gt;ds389_info</title>
<path fill="none" stroke="black" d="M426.11,-287.64C436.33,-278.13 447.89,-265.55 455,-252 464.83,-233.27 469.58,-209.79 471.87,-191.65"/>
<polygon fill="black" stroke="black" points="475.33,-192.15 472.91,-181.84 468.37,-191.41 475.33,-192.15"/>
</g>
<!-- playbook&#45;&gt;ds389_server -->
<g id="edge3" class="edge">
<title>playbook&#45;&gt;ds389_server</title>
<path fill="none" stroke="black" d="M368.78,-215.52C349.86,-206.38 326.48,-195.09 306.25,-185.33"/>
<polygon fill="black" stroke="black" points="307.9,-182.24 297.37,-181.04 304.85,-188.54 307.9,-182.24"/>
</g>
<!-- playbook&#45;&gt;ds389_info -->
<g id="edge4" class="edge">
<title>playbook&#45;&gt;ds389_info</title>
<path fill="none" stroke="black" d="M416.14,-215.7C423.49,-207.37 433.3,-197.22 442.79,-188.07"/>
<polygon fill="black" stroke="black" points="445,-190.79 449.88,-181.38 440.2,-185.7 445,-190.79"/>
</g>
<!-- ds389_module_1 -->
<g id="node6" class="node">
<title>ds389_module_1</title>
<polygon fill="none" stroke="blue" points="358,-108 182,-108 182,-72 358,-72 358,-108"/>
<text text-anchor="middle" x="270" y="-86.3" font-family="Times,serif" font-size="14.00">ds389_module module</text>
</g>
<!-- ds389_server&#45;&gt;ds389_module_1 -->
<g id="edge9" class="edge">
<title>ds389_server&#45;&gt;ds389_module_1</title>
<path fill="none" stroke="black" d="M262.47,-143.7C263.53,-136.32 264.78,-127.52 265.96,-119.25"/>
<polygon fill="black" stroke="black" points="269.39,-120 267.34,-109.6 262.46,-119.01 269.39,-120"/>
</g>
<!-- ds389_module_2 -->
<g id="node9" class="node">
<title>ds389_module_2</title>
<polygon fill="none" stroke="green" points="557,-108 381,-108 381,-72 557,-72 557,-108"/>
<text text-anchor="middle" x="469" y="-86.3" font-family="Times,serif" font-size="14.00">ds389_module module</text>
</g>
<!-- ds389_server&#45;&gt;ds389_module_2 -->
<g id="edge12" class="edge">
<title>ds389_server&#45;&gt;ds389_module_2</title>
<path fill="none" stroke="black" d="M312.2,-143.52C340.74,-133.96 376.28,-122.05 406.31,-112"/>
<polygon fill="black" stroke="black" points="407.3,-115.36 415.67,-108.86 405.07,-108.72 407.3,-115.36"/>
</g>
<!-- ds389_info&#45;&gt;playbook -->
<g id="edge8" class="edge">
<title>ds389_info&#45;&gt;playbook</title>
<path fill="none" stroke="black" d="M463.04,-180.1C455.67,-188.47 445.79,-198.69 436.23,-207.92"/>
<polygon fill="black" stroke="black" points="433.95,-205.25 429.07,-214.66 438.75,-210.35 433.95,-205.25"/>
</g>
<!-- ds389_info&#45;&gt;ds389_module_1 -->
<g id="edge6" class="edge">
<title>ds389_info&#45;&gt;ds389_module_1</title>
<path fill="none" stroke="black" d="M423.05,-143.52C395.2,-133.96 360.5,-122.05 331.19,-112"/>
<polygon fill="black" stroke="black" points="332.68,-108.81 322.09,-108.87 330.41,-115.43 332.68,-108.81"/>
</g>
<!-- ds389_info&#45;&gt;ds389_module_2 -->
<g id="edge7" class="edge">
<title>ds389_info&#45;&gt;ds389_module_2</title>
<path fill="none" stroke="black" d="M472.76,-143.7C472.24,-136.41 471.62,-127.73 471.04,-119.54"/>
<polygon fill="black" stroke="black" points="474.53,-119.34 470.33,-109.61 467.55,-119.84 474.53,-119.34"/>
</g>
<!-- ds389_instance_11 -->
<g id="node7" class="node">
<title>ds389_instance_11</title>
<path fill="none" stroke="blue" d="M205.5,-32.73C205.5,-34.53 177.49,-36 143,-36 108.51,-36 80.5,-34.53 80.5,-32.73 80.5,-32.73 80.5,-3.27 80.5,-3.27 80.5,-1.47 108.51,0 143,0 177.49,0 205.5,-1.47 205.5,-3.27 205.5,-3.27 205.5,-32.73 205.5,-32.73"/>
<path fill="none" stroke="blue" d="M205.5,-32.73C205.5,-30.92 177.49,-29.45 143,-29.45 108.51,-29.45 80.5,-30.92 80.5,-32.73"/>
<text text-anchor="middle" x="143" y="-14.3" font-family="Times,serif" font-size="14.00">ds389 instance</text>
</g>
<!-- ds389_module_1&#45;&gt;ds389_instance_11 -->
<g id="edge10" class="edge">
<title>ds389_module_1&#45;&gt;ds389_instance_11</title>
<path fill="none" stroke="black" d="M238.28,-71.52C221.94,-62.51 201.83,-51.42 184.29,-41.76"/>
<polygon fill="black" stroke="black" points="186.09,-38.75 175.64,-36.99 182.71,-44.88 186.09,-38.75"/>
</g>
<!-- ds389_instance_12 -->
<g id="node8" class="node">
<title>ds389_instance_12</title>
<path fill="none" stroke="blue" d="M348.5,-32.73C348.5,-34.53 320.49,-36 286,-36 251.51,-36 223.5,-34.53 223.5,-32.73 223.5,-32.73 223.5,-3.27 223.5,-3.27 223.5,-1.47 251.51,0 286,0 320.49,0 348.5,-1.47 348.5,-3.27 348.5,-3.27 348.5,-32.73 348.5,-32.73"/>
<path fill="none" stroke="blue" d="M348.5,-32.73C348.5,-30.92 320.49,-29.45 286,-29.45 251.51,-29.45 223.5,-30.92 223.5,-32.73"/>
<text text-anchor="middle" x="286" y="-14.3" font-family="Times,serif" font-size="14.00">ds389 instance</text>
</g>
<!-- ds389_module_1&#45;&gt;ds389_instance_12 -->
<g id="edge11" class="edge">
<title>ds389_module_1&#45;&gt;ds389_instance_12</title>
<path fill="none" stroke="black" d="M273.96,-71.7C275.64,-64.32 277.65,-55.52 279.54,-47.25"/>
<polygon fill="black" stroke="black" points="282.94,-48.11 281.75,-37.58 276.11,-46.55 282.94,-48.11"/>
</g>
<!-- ds389_instance_21 -->
<g id="node10" class="node">
<title>ds389_instance_21</title>
<path fill="none" stroke="green" d="M516.5,-32.73C516.5,-34.53 488.49,-36 454,-36 419.51,-36 391.5,-34.53 391.5,-32.73 391.5,-32.73 391.5,-3.27 391.5,-3.27 391.5,-1.47 419.51,0 454,0 488.49,0 516.5,-1.47 516.5,-3.27 516.5,-3.27 516.5,-32.73 516.5,-32.73"/>
<path fill="none" stroke="green" d="M516.5,-32.73C516.5,-30.92 488.49,-29.45 454,-29.45 419.51,-29.45 391.5,-30.92 391.5,-32.73"/>
<text text-anchor="middle" x="454" y="-14.3" font-family="Times,serif" font-size="14.00">ds389 instance</text>
</g>
<!-- ds389_module_2&#45;&gt;ds389_instance_21 -->
<g id="edge13" class="edge">
<title>ds389_module_2&#45;&gt;ds389_instance_21</title>
<path fill="none" stroke="black" d="M465.29,-71.7C463.71,-64.32 461.83,-55.52 460.05,-47.25"/>
<polygon fill="black" stroke="black" points="463.5,-46.63 457.98,-37.58 456.66,-48.1 463.5,-46.63"/>
</g>
<!-- ds389_instance_22 -->
<g id="node11" class="node">
<title>ds389_instance_22</title>
<path fill="none" stroke="green" d="M659.5,-32.73C659.5,-34.53 631.49,-36 597,-36 562.51,-36 534.5,-34.53 534.5,-32.73 534.5,-32.73 534.5,-3.27 534.5,-3.27 534.5,-1.47 562.51,0 597,0 631.49,0 659.5,-1.47 659.5,-3.27 659.5,-3.27 659.5,-32.73 659.5,-32.73"/>
<path fill="none" stroke="green" d="M659.5,-32.73C659.5,-30.92 631.49,-29.45 597,-29.45 562.51,-29.45 534.5,-30.92 534.5,-32.73"/>
<text text-anchor="middle" x="597" y="-14.3" font-family="Times,serif" font-size="14.00">ds389 instance</text>
</g>
<!-- ds389_module_2&#45;&gt;ds389_instance_22 -->
<g id="edge14" class="edge">
<title>ds389_module_2&#45;&gt;ds389_instance_22</title>
<path fill="none" stroke="black" d="M500.97,-71.52C517.43,-62.51 537.71,-51.42 555.38,-41.76"/>
<polygon fill="black" stroke="black" points="557.02,-44.86 564.11,-36.99 553.66,-38.71 557.02,-44.86"/>
</g>
</g>
</svg>
