<?xml version="1.0" encoding="UTF-8" standalone="no"?>
<!DOCTYPE svg PUBLIC "-//W3C//DTD SVG 1.1//EN"
 "http://www.w3.org/Graphics/SVG/1.1/DTD/svg11.dtd">
<!-- Generated by graphviz version 7.1.0 (0)
 -->
<!-- Title: AnsibleDs389Module Pages: 1 -->
<svg width="465pt" height="260pt"
 viewBox="0.00 0.00 465.10 260.00" xmlns="http://www.w3.org/2000/svg" xmlns:xlink="http://www.w3.org/1999/xlink">
<g id="graph0" class="graph" transform="scale(1 1) rotate(0) translate(4 256)">
<title>AnsibleDs389Module</title>
<polygon fill="white" stroke="none" points="-4,4 -4,-256 461.1,-256 461.1,4 -4,4"/>
<!-- title -->
<g id="node1" class="node">
<title>title</title>
<text text-anchor="middle" x="131.5" y="-229.6" font-family="Times,serif" font-size="18.00">ds389_module architecture</text>
</g>
<!-- ds389_module -->
<g id="node2" class="node">
<title>ds389_module</title>
<polygon fill="none" stroke="black" points="400,-252 281,-252 281,-216 400,-216 400,-252"/>
<text text-anchor="middle" x="340.5" y="-230.3" font-family="Times,serif" font-size="14.00">ds389_module</text>
</g>
<!-- entities -->
<g id="node4" class="node">
<title>entities</title>
<polygon fill="none" stroke="black" points="412,-180 269,-180 269,-144 412,-144 412,-180"/>
<text text-anchor="middle" x="340.5" y="-158.3" font-family="Times,serif" font-size="14.00">ds389_entities.py</text>
</g>
<!-- ds389_module&#45;&gt;entities -->
<g id="edge1" class="edge">
<title>ds389_module&#45;&gt;entities</title>
<path fill="none" stroke="black" d="M340.5,-215.7C340.5,-208.41 340.5,-199.73 340.5,-191.54"/>
<polygon fill="black" stroke="black" points="344,-191.62 340.5,-181.62 337,-191.62 344,-191.62"/>
</g>
<!-- dsutil -->
<g id="node3" class="node">
<title>dsutil</title>
<polygon fill="none" stroke="black" points="221,-108 108,-108 108,-72 221,-72 221,-108"/>
<text text-anchor="middle" x="164.5" y="-86.3" font-family="Times,serif" font-size="14.00">ds389_util.py</text>
</g>
<!-- lib389 -->
<g id="node6" class="node">
<title>lib389</title>
<polygon fill="none" stroke="black" points="347.5,-36 285.5,-36 285.5,0 347.5,0 347.5,-36"/>
<text text-anchor="middle" x="316.5" y="-14.3" font-family="Times,serif" font-size="14.00">lib389</text>
</g>
<!-- dsutil&#45;&gt;lib389 -->
<g id="edge6" class="edge">
<title>dsutil&#45;&gt;lib389</title>
<path fill="none" stroke="black" d="M202.46,-71.52C224.48,-61.38 252.23,-48.6 274.84,-38.18"/>
<polygon fill="black" stroke="black" points="276.16,-41.43 283.78,-34.07 273.23,-35.07 276.16,-41.43"/>
</g>
<!-- entities&#45;&gt;dsutil -->
<g id="edge2" class="edge">
<title>entities&#45;&gt;dsutil</title>
<path fill="none" stroke="black" d="M296.54,-143.52C272.93,-134.13 243.63,-122.47 218.62,-112.53"/>
<polygon fill="black" stroke="black" points="220.19,-109.38 209.61,-108.94 217.61,-115.89 220.19,-109.38"/>
</g>
<!-- entities_options -->
<g id="node5" class="node">
<title>entities_options</title>
<polygon fill="none" stroke="black" points="441.5,-108 239.5,-108 239.5,-72 441.5,-72 441.5,-108"/>
<text text-anchor="middle" x="340.5" y="-86.3" font-family="Times,serif" font-size="14.00">ds389_entities_options.py</text>
</g>
<!-- entities&#45;&gt;entities_options -->
<g id="edge4" class="edge">
<title>entities&#45;&gt;entities_options</title>
<path fill="none" stroke="black" d="M334.58,-143.7C333.83,-136.41 333.59,-127.73 333.85,-119.54"/>
<polygon fill="black" stroke="black" points="337.34,-119.82 334.51,-109.61 330.36,-119.36 337.34,-119.82"/>
</g>
<!-- entities&#45;&gt;lib389 -->
<g id="edge5" class="edge">
<title>entities&#45;&gt;lib389</title>
<path fill="none" stroke="black" d="M406.18,-143.56C423.56,-135.63 440.29,-124.24 450.5,-108 459.01,-94.45 459.5,-85.23 450.5,-72 430.14,-42.06 389.98,-29.03 358.9,-23.36"/>
<polygon fill="black" stroke="black" points="359.85,-19.97 349.42,-21.83 358.73,-26.88 359.85,-19.97"/>
</g>
<!-- entities_options&#45;&gt;entities -->
<g id="edge3" class="edge">
<title>entities_options&#45;&gt;entities</title>
<path fill="none" stroke="black" d="M346.4,-108.1C347.16,-115.37 347.41,-124.04 347.15,-132.24"/>
<polygon fill="black" stroke="black" points="343.66,-131.98 346.51,-142.19 350.65,-132.43 343.66,-131.98"/>
</g>
</g>
</svg>
