<?xml version="1.0" encoding="UTF-8" standalone="no"?>
<!DOCTYPE svg PUBLIC "-//W3C//DTD SVG 1.1//EN"
 "http://www.w3.org/Graphics/SVG/1.1/DTD/svg11.dtd">
<!-- Generated by graphviz version 7.1.0 (0)
 -->
<!-- Title: api Pages: 1 -->
<svg width="455pt" height="317pt"
 viewBox="0.00 0.00 454.50 317.00" xmlns="http://www.w3.org/2000/svg" xmlns:xlink="http://www.w3.org/1999/xlink">
<g id="graph0" class="graph" transform="scale(1 1) rotate(0) translate(4 313)">
<title>api</title>
<polygon fill="white" stroke="none" points="-4,4 -4,-313 450.5,-313 450.5,4 -4,4"/>
<!-- title -->
<g id="node1" class="node">
<title>title</title>
<text text-anchor="middle" x="124" y="-286.6" font-family="Times,serif" font-size="18.00">389ds internal API layout</text>
</g>
<!-- nsslapd -->
<g id="node2" class="node">
<title>nsslapd</title>
<path fill="none" stroke="red" d="M342,-305.73C342,-307.53 324.97,-309 304,-309 283.03,-309 266,-307.53 266,-305.73 266,-305.73 266,-276.27 266,-276.27 266,-274.47 283.03,-273 304,-273 324.97,-273 342,-274.47 342,-276.27 342,-276.27 342,-305.73 342,-305.73"/>
<path fill="none" stroke="red" d="M342,-305.73C342,-303.92 324.97,-302.45 304,-302.45 283.03,-302.45 266,-303.92 266,-305.73"/>
<text text-anchor="middle" x="304" y="-287.3" font-family="Times,serif" font-size="14.00">ns&#45;slapd</text>
</g>
<!-- slapd -->
<g id="node6" class="node">
<title>slapd</title>
<path fill="none" stroke="green" d="M340.5,-233.73C340.5,-235.53 324.14,-237 304,-237 283.86,-237 267.5,-235.53 267.5,-233.73 267.5,-233.73 267.5,-204.27 267.5,-204.27 267.5,-202.47 283.86,-201 304,-201 324.14,-201 340.5,-202.47 340.5,-204.27 340.5,-204.27 340.5,-233.73 340.5,-233.73"/>
<path fill="none" stroke="green" d="M340.5,-233.73C340.5,-231.92 324.14,-230.45 304,-230.45 283.86,-230.45 267.5,-231.92 267.5,-233.73"/>
<text text-anchor="middle" x="304" y="-215.3" font-family="Times,serif" font-size="14.00">libslapd</text>
</g>
<!-- nsslapd&#45;&gt;slapd -->
<g id="edge3" class="edge">
<title>nsslapd&#45;&gt;slapd</title>
<path fill="none" stroke="black" d="M304,-272.7C304,-264.14 304,-253.67 304,-244.32"/>
<polygon fill="black" stroke="black" points="307.5,-244.44 304,-234.44 300.5,-244.44 307.5,-244.44"/>
</g>
<!-- dbscan -->
<g id="node3" class="node">
<title>dbscan</title>
<path fill="none" stroke="red" d="M443.5,-305.73C443.5,-307.53 428.48,-309 410,-309 391.52,-309 376.5,-307.53 376.5,-305.73 376.5,-305.73 376.5,-276.27 376.5,-276.27 376.5,-274.47 391.52,-273 410,-273 428.48,-273 443.5,-274.47 443.5,-276.27 443.5,-276.27 443.5,-305.73 443.5,-305.73"/>
<path fill="none" stroke="red" d="M443.5,-305.73C443.5,-303.92 428.48,-302.45 410,-302.45 391.52,-302.45 376.5,-303.92 376.5,-305.73"/>
<text text-anchor="middle" x="410" y="-287.3" font-family="Times,serif" font-size="14.00">dbscan</text>
</g>
<!-- dbscan&#45;&gt;slapd -->
<g id="edge2" class="edge">
<title>dbscan&#45;&gt;slapd</title>
<path fill="none" stroke="black" d="M384.61,-273.23C369.19,-263.05 349.45,-250.01 333.36,-239.39"/>
<polygon fill="black" stroke="black" points="335.42,-236.55 325.15,-233.96 331.56,-242.4 335.42,-236.55"/>
</g>
<!-- backldbm -->
<g id="node7" class="node">
<title>backldbm</title>
<path fill="none" stroke="blue" d="M321.5,-0.5C321.5,-0.5 434.5,-0.5 434.5,-0.5 440.5,-0.5 446.5,-6.5 446.5,-12.5 446.5,-12.5 446.5,-80.5 446.5,-80.5 446.5,-86.5 440.5,-92.5 434.5,-92.5 434.5,-92.5 321.5,-92.5 321.5,-92.5 315.5,-92.5 309.5,-86.5 309.5,-80.5 309.5,-80.5 309.5,-12.5 309.5,-12.5 309.5,-6.5 315.5,-0.5 321.5,-0.5"/>
<text text-anchor="middle" x="378" y="-77.3" font-family="Times,serif" font-size="14.00">libbackldbm</text>
<polyline fill="none" stroke="blue" points="309.5,-69.5 446.5,-69.5"/>
<text text-anchor="middle" x="378" y="-54.3" font-family="Times,serif" font-size="14.00">dbapi</text>
<polyline fill="none" stroke="blue" points="309.5,-46.5 446.5,-46.5"/>
<text text-anchor="middle" x="342.5" y="-31.3" font-family="Times,serif" font-size="14.00">db&#45;bdb</text>
<polyline fill="none" stroke="blue" points="309.5,-23.5 375.5,-23.5"/>
<text text-anchor="middle" x="342.5" y="-8.3" font-family="Times,serif" font-size="14.00">libdb</text>
<polyline fill="none" stroke="blue" points="375.5,-0.5 375.5,-46.5"/>
<text text-anchor="middle" x="411" y="-31.3" font-family="Times,serif" font-size="14.00">db&#45;mdb</text>
<polyline fill="none" stroke="blue" points="375.5,-23.5 446.5,-23.5"/>
<text text-anchor="middle" x="411" y="-8.3" font-family="Times,serif" font-size="14.00">liblmdb</text>
</g>
<!-- dbscan&#45;&gt;backldbm -->
<g id="edge1" class="edge">
<title>dbscan&#45;&gt;backldbm</title>
<path fill="none" stroke="black" d="M407.7,-272.56C403.1,-237.68 392.58,-158.01 385.38,-103.46"/>
<polygon fill="black" stroke="black" points="388.88,-103.18 384.1,-93.73 381.94,-104.1 388.88,-103.18"/>
</g>
<!-- repl -->
<g id="node4" class="node">
<title>repl</title>
<path fill="none" stroke="green" d="M248.5,-161.73C248.5,-163.53 216.45,-165 177,-165 137.55,-165 105.5,-163.53 105.5,-161.73 105.5,-161.73 105.5,-132.27 105.5,-132.27 105.5,-130.47 137.55,-129 177,-129 216.45,-129 248.5,-130.47 248.5,-132.27 248.5,-132.27 248.5,-161.73 248.5,-161.73"/>
<path fill="none" stroke="green" d="M248.5,-161.73C248.5,-159.92 216.45,-158.45 177,-158.45 137.55,-158.45 105.5,-159.92 105.5,-161.73"/>
<text text-anchor="middle" x="177" y="-143.3" font-family="Times,serif" font-size="14.00">replication plugin</text>
</g>
<!-- repl&#45;&gt;slapd -->
<g id="edge5" class="edge">
<title>repl&#45;&gt;slapd</title>
<path fill="none" stroke="black" d="M206.1,-161.06C224.93,-170.68 249.42,-184 269.24,-195.34"/>
<polygon fill="black" stroke="black" points="267.42,-198.32 277.82,-200.3 270.92,-192.26 267.42,-198.32"/>
</g>
<!-- repl&#45;&gt;backldbm -->
<g id="edge6" class="edge">
<title>repl&#45;&gt;backldbm</title>
<path fill="none" stroke="black" d="M207.18,-128.62C231.64,-115.96 267.11,-98.38 299.42,-82.82"/>
<polygon fill="black" stroke="black" points="300.92,-85.98 308.42,-78.5 297.89,-79.67 300.92,-85.98"/>
</g>
<!-- plugin -->
<g id="node5" class="node">
<title>plugin</title>
<path fill="none" stroke="green" d="M341,-161.73C341,-163.53 324.42,-165 304,-165 283.58,-165 267,-163.53 267,-161.73 267,-161.73 267,-132.27 267,-132.27 267,-130.47 283.58,-129 304,-129 324.42,-129 341,-130.47 341,-132.27 341,-132.27 341,-161.73 341,-161.73"/>
<path fill="none" stroke="green" d="M341,-161.73C341,-159.92 324.42,-158.45 304,-158.45 283.58,-158.45 267,-159.92 267,-161.73"/>
<text text-anchor="middle" x="304" y="-143.3" font-family="Times,serif" font-size="14.00">a plugin</text>
</g>
<!-- plugin&#45;&gt;slapd -->
<g id="edge11" class="edge">
<title>plugin&#45;&gt;slapd</title>
<path fill="none" stroke="black" d="M309.38,-160.93C310.54,-168.88 310.96,-179.41 310.65,-189.25"/>
<polygon fill="black" stroke="black" points="307.16,-188.98 310.01,-199.19 314.15,-189.43 307.16,-188.98"/>
</g>
<!-- slapd&#45;&gt;repl -->
<g id="edge7" class="edge">
<title>slapd&#45;&gt;repl</title>
<path fill="none" stroke="black" d="M269.08,-201.94C248.99,-191.52 224.17,-177.89 205.29,-166.94"/>
<polygon fill="black" stroke="black" points="207.18,-163.99 196.79,-161.94 203.63,-170.03 207.18,-163.99"/>
</g>
<!-- slapd&#45;&gt;plugin -->
<g id="edge10" class="edge">
<title>slapd&#45;&gt;plugin</title>
<path fill="none" stroke="black" d="M298.08,-200.7C297.2,-192.14 297.02,-181.67 297.54,-172.32"/>
<polygon fill="black" stroke="black" points="301.01,-172.72 298.48,-162.44 294.05,-172.06 301.01,-172.72"/>
</g>
<!-- slapd&#45;&gt;backldbm -->
<g id="edge4" class="edge">
<title>slapd&#45;&gt;backldbm</title>
<path fill="none" stroke="black" d="M315.01,-200.51C323.44,-190.88 334.21,-178.22 341,-165 350.78,-145.95 357.21,-123.41 361.98,-103.19"/>
<polygon fill="black" stroke="black" points="365.33,-104.24 364.14,-93.71 358.51,-102.68 365.33,-104.24"/>
</g>
<!-- backldbm&#45;&gt;repl -->
<g id="edge8" class="edge">
<title>backldbm&#45;&gt;repl</title>
<path fill="none" stroke="black" d="M309.89,-84.09C283.11,-97.42 252.93,-112.08 228.07,-123.79"/>
<polygon fill="black" stroke="black" points="226.71,-120.56 219.13,-127.98 229.67,-126.9 226.71,-120.56"/>
</g>
<!-- backldbm&#45;&gt;slapd -->
<g id="edge9" class="edge">
<title>backldbm&#45;&gt;slapd</title>
<path fill="none" stroke="black" d="M380.57,-92.23C377.48,-114.94 370.59,-142.43 359,-165 353.78,-175.16 346.22,-184.99 338.28,-193.36"/>
<polygon fill="black" stroke="black" points="336.05,-190.64 331.38,-200.15 340.96,-195.64 336.05,-190.64"/>
</g>
</g>
</svg>
