<?xml version="1.0" encoding="UTF-8" standalone="no"?>
<!DOCTYPE svg PUBLIC "-//W3C//DTD SVG 1.1//EN"
 "http://www.w3.org/Graphics/SVG/1.1/DTD/svg11.dtd">
<!-- Generated by graphviz version 7.1.0 (0)
 -->
<!-- Title: api Pages: 1 -->
<svg width="565pt" height="317pt"
 viewBox="0.00 0.00 564.50 317.00" xmlns="http://www.w3.org/2000/svg" xmlns:xlink="http://www.w3.org/1999/xlink">
<g id="graph0" class="graph" transform="scale(1 1) rotate(0) translate(4 313)">
<title>api</title>
<polygon fill="white" stroke="none" points="-4,4 -4,-313 560.5,-313 560.5,4 -4,4"/>
<!-- title -->
<g id="node1" class="node">
<title>title</title>
<text text-anchor="middle" x="179" y="-286.6" font-family="Times,serif" font-size="18.00">389ds internal API layout (Fedora 40)</text>
</g>
<!-- nsslapd -->
<g id="node2" class="node">
<title>nsslapd</title>
<path fill="none" stroke="red" d="M452,-305.73C452,-307.53 434.97,-309 414,-309 393.03,-309 376,-307.53 376,-305.73 376,-305.73 376,-276.27 376,-276.27 376,-274.47 393.03,-273 414,-273 434.97,-273 452,-274.47 452,-276.27 452,-276.27 452,-305.73 452,-305.73"/>
<path fill="none" stroke="red" d="M452,-305.73C452,-303.92 434.97,-302.45 414,-302.45 393.03,-302.45 376,-303.92 376,-305.73"/>
<text text-anchor="middle" x="414" y="-287.3" font-family="Times,serif" font-size="14.00">ns&#45;slapd</text>
</g>
<!-- slapd -->
<g id="node6" class="node">
<title>slapd</title>
<path fill="none" stroke="green" d="M450.5,-233.73C450.5,-235.53 434.14,-237 414,-237 393.86,-237 377.5,-235.53 377.5,-233.73 377.5,-233.73 377.5,-204.27 377.5,-204.27 377.5,-202.47 393.86,-201 414,-201 434.14,-201 450.5,-202.47 450.5,-204.27 450.5,-204.27 450.5,-233.73 450.5,-233.73"/>
<path fill="none" stroke="green" d="M450.5,-233.73C450.5,-231.92 434.14,-230.45 414,-230.45 393.86,-230.45 377.5,-231.92 377.5,-233.73"/>
<text text-anchor="middle" x="414" y="-215.3" font-family="Times,serif" font-size="14.00">libslapd</text>
</g>
<!-- nsslapd&#45;&gt;slapd -->
<g id="edge3" class="edge">
<title>nsslapd&#45;&gt;slapd</title>
<path fill="none" stroke="black" d="M414,-272.7C414,-264.14 414,-253.67 414,-244.32"/>
<polygon fill="black" stroke="black" points="417.5,-244.44 414,-234.44 410.5,-244.44 417.5,-244.44"/>
</g>
<!-- dbscan -->
<g id="node3" class="node">
<title>dbscan</title>
<path fill="none" stroke="red" d="M553.5,-305.73C553.5,-307.53 538.48,-309 520,-309 501.52,-309 486.5,-307.53 486.5,-305.73 486.5,-305.73 486.5,-276.27 486.5,-276.27 486.5,-274.47 501.52,-273 520,-273 538.48,-273 553.5,-274.47 553.5,-276.27 553.5,-276.27 553.5,-305.73 553.5,-305.73"/>
<path fill="none" stroke="red" d="M553.5,-305.73C553.5,-303.92 538.48,-302.45 520,-302.45 501.52,-302.45 486.5,-303.92 486.5,-305.73"/>
<text text-anchor="middle" x="520" y="-287.3" font-family="Times,serif" font-size="14.00">dbscan</text>
</g>
<!-- dbscan&#45;&gt;slapd -->
<g id="edge2" class="edge">
<title>dbscan&#45;&gt;slapd</title>
<path fill="none" stroke="black" d="M494.61,-273.23C479.19,-263.05 459.45,-250.01 443.36,-239.39"/>
<polygon fill="black" stroke="black" points="445.42,-236.55 435.15,-233.96 441.56,-242.4 445.42,-236.55"/>
</g>
<!-- backldbm -->
<g id="node7" class="node">
<title>backldbm</title>
<path fill="none" stroke="blue" d="M431.5,-0.5C431.5,-0.5 544.5,-0.5 544.5,-0.5 550.5,-0.5 556.5,-6.5 556.5,-12.5 556.5,-12.5 556.5,-80.5 556.5,-80.5 556.5,-86.5 550.5,-92.5 544.5,-92.5 544.5,-92.5 431.5,-92.5 431.5,-92.5 425.5,-92.5 419.5,-86.5 419.5,-80.5 419.5,-80.5 419.5,-12.5 419.5,-12.5 419.5,-6.5 425.5,-0.5 431.5,-0.5"/>
<text text-anchor="middle" x="488" y="-77.3" font-family="Times,serif" font-size="14.00">libbackldbm</text>
<polyline fill="none" stroke="blue" points="419.5,-69.5 556.5,-69.5"/>
<text text-anchor="middle" x="488" y="-54.3" font-family="Times,serif" font-size="14.00">dbapi</text>
<polyline fill="none" stroke="blue" points="419.5,-46.5 556.5,-46.5"/>
<text text-anchor="middle" x="452.5" y="-31.3" font-family="Times,serif" font-size="14.00">db&#45;bdb</text>
<polyline fill="none" stroke="blue" points="419.5,-23.5 485.5,-23.5"/>
<text text-anchor="middle" x="452.5" y="-8.3" font-family="Times,serif" font-size="14.00">libdb</text>
<polyline fill="none" stroke="blue" points="485.5,-0.5 485.5,-46.5"/>
<text text-anchor="middle" x="521" y="-31.3" font-family="Times,serif" font-size="14.00">db&#45;mdb</text>
<polyline fill="none" stroke="blue" points="485.5,-23.5 556.5,-23.5"/>
<text text-anchor="middle" x="521" y="-8.3" font-family="Times,serif" font-size="14.00">liblmdb</text>
</g>
<!-- dbscan&#45;&gt;backldbm -->
<g id="edge1" class="edge">
<title>dbscan&#45;&gt;backldbm</title>
<path fill="none" stroke="black" d="M517.7,-272.56C513.1,-237.68 502.58,-158.01 495.38,-103.46"/>
<polygon fill="black" stroke="black" points="498.88,-103.18 494.1,-93.73 491.94,-104.1 498.88,-103.18"/>
</g>
<!-- repl -->
<g id="node4" class="node">
<title>repl</title>
<path fill="none" stroke="green" d="M358.5,-161.73C358.5,-163.53 326.45,-165 287,-165 247.55,-165 215.5,-163.53 215.5,-161.73 215.5,-161.73 215.5,-132.27 215.5,-132.27 215.5,-130.47 247.55,-129 287,-129 326.45,-129 358.5,-130.47 358.5,-132.27 358.5,-132.27 358.5,-161.73 358.5,-161.73"/>
<path fill="none" stroke="green" d="M358.5,-161.73C358.5,-159.92 326.45,-158.45 287,-158.45 247.55,-158.45 215.5,-159.92 215.5,-161.73"/>
<text text-anchor="middle" x="287" y="-143.3" font-family="Times,serif" font-size="14.00">replication plugin</text>
</g>
<!-- repl&#45;&gt;slapd -->
<g id="edge5" class="edge">
<title>repl&#45;&gt;slapd</title>
<path fill="none" stroke="black" d="M316.1,-161.06C334.93,-170.68 359.42,-184 379.24,-195.34"/>
<polygon fill="black" stroke="black" points="377.42,-198.32 387.82,-200.3 380.92,-192.26 377.42,-198.32"/>
</g>
<!-- repl&#45;&gt;backldbm -->
<g id="edge6" class="edge">
<title>repl&#45;&gt;backldbm</title>
<path fill="none" stroke="black" d="M317.18,-128.62C341.64,-115.96 377.11,-98.38 409.42,-82.82"/>
<polygon fill="black" stroke="black" points="410.92,-85.98 418.42,-78.5 407.89,-79.67 410.92,-85.98"/>
</g>
<!-- plugin -->
<g id="node5" class="node">
<title>plugin</title>
<path fill="none" stroke="green" d="M451,-161.73C451,-163.53 434.42,-165 414,-165 393.58,-165 377,-163.53 377,-161.73 377,-161.73 377,-132.27 377,-132.27 377,-130.47 393.58,-129 414,-129 434.42,-129 451,-130.47 451,-132.27 451,-132.27 451,-161.73 451,-161.73"/>
<path fill="none" stroke="green" d="M451,-161.73C451,-159.92 434.42,-158.45 414,-158.45 393.58,-158.45 377,-159.92 377,-161.73"/>
<text text-anchor="middle" x="414" y="-143.3" font-family="Times,serif" font-size="14.00">a plugin</text>
</g>
<!-- plugin&#45;&gt;slapd -->
<g id="edge11" class="edge">
<title>plugin&#45;&gt;slapd</title>
<path fill="none" stroke="black" d="M419.38,-160.93C420.54,-168.88 420.96,-179.41 420.65,-189.25"/>
<polygon fill="black" stroke="black" points="417.16,-188.98 420.01,-199.19 424.15,-189.43 417.16,-188.98"/>
</g>
<!-- slapd&#45;&gt;repl -->
<g id="edge7" class="edge">
<title>slapd&#45;&gt;repl</title>
<path fill="none" stroke="black" d="M379.08,-201.94C358.99,-191.52 334.17,-177.89 315.29,-166.94"/>
<polygon fill="black" stroke="black" points="317.18,-163.99 306.79,-161.94 313.63,-170.03 317.18,-163.99"/>
</g>
<!-- slapd&#45;&gt;plugin -->
<g id="edge10" class="edge">
<title>slapd&#45;&gt;plugin</title>
<path fill="none" stroke="black" d="M408.08,-200.7C407.2,-192.14 407.02,-181.67 407.54,-172.32"/>
<polygon fill="black" stroke="black" points="411.01,-172.72 408.48,-162.44 404.05,-172.06 411.01,-172.72"/>
</g>
<!-- slapd&#45;&gt;backldbm -->
<g id="edge4" class="edge">
<title>slapd&#45;&gt;backldbm</title>
<path fill="none" stroke="black" d="M425.01,-200.51C433.44,-190.88 444.21,-178.22 451,-165 460.78,-145.95 467.21,-123.41 471.98,-103.19"/>
<polygon fill="black" stroke="black" points="475.33,-104.24 474.14,-93.71 468.51,-102.68 475.33,-104.24"/>
</g>
<!-- backldbm&#45;&gt;repl -->
<g id="edge8" class="edge">
<title>backldbm&#45;&gt;repl</title>
<path fill="none" stroke="black" d="M419.89,-84.09C393.11,-97.42 362.93,-112.08 338.07,-123.79"/>
<polygon fill="black" stroke="black" points="336.71,-120.56 329.13,-127.98 339.67,-126.9 336.71,-120.56"/>
</g>
<!-- backldbm&#45;&gt;slapd -->
<g id="edge9" class="edge">
<title>backldbm&#45;&gt;slapd</title>
<path fill="none" stroke="black" d="M490.57,-92.23C487.48,-114.94 480.59,-142.43 469,-165 463.78,-175.16 456.22,-184.99 448.28,-193.36"/>
<polygon fill="black" stroke="black" points="446.05,-190.64 441.38,-200.15 450.96,-195.64 446.05,-190.64"/>
</g>
</g>
</svg>
