<?xml version="1.0" encoding="UTF-8" standalone="no"?>
<!DOCTYPE svg PUBLIC "-//W3C//DTD SVG 1.1//EN"
 "http://www.w3.org/Graphics/SVG/1.1/DTD/svg11.dtd">
<!-- Generated by graphviz version 7.1.0 (0)
 -->
<!-- Title: api Pages: 1 -->
<svg width="585pt" height="423pt"
 viewBox="0.00 0.00 585.12 423.00" xmlns="http://www.w3.org/2000/svg" xmlns:xlink="http://www.w3.org/1999/xlink">
<g id="graph0" class="graph" transform="scale(1 1) rotate(0) translate(4 419)">
<title>api</title>
<polygon fill="white" stroke="none" points="-4,4 -4,-419 581.12,-419 581.12,4 -4,4"/>
<!-- title -->
<g id="node1" class="node">
<title>title</title>
<text text-anchor="middle" x="161" y="-392.6" font-family="Times,serif" font-size="18.00">389ds internal API layout (RHEL)</text>
</g>
<!-- nsslapd -->
<g id="node2" class="node">
<title>nsslapd</title>
<path fill="none" stroke="red" d="M416,-411.73C416,-413.53 398.97,-415 378,-415 357.03,-415 340,-413.53 340,-411.73 340,-411.73 340,-382.27 340,-382.27 340,-380.47 357.03,-379 378,-379 398.97,-379 416,-380.47 416,-382.27 416,-382.27 416,-411.73 416,-411.73"/>
<path fill="none" stroke="red" d="M416,-411.73C416,-409.92 398.97,-408.45 378,-408.45 357.03,-408.45 340,-409.92 340,-411.73"/>
<text text-anchor="middle" x="378" y="-393.3" font-family="Times,serif" font-size="14.00">ns&#45;slapd</text>
</g>
<!-- slapd -->
<g id="node6" class="node">
<title>slapd</title>
<path fill="none" stroke="green" d="M414.5,-339.73C414.5,-341.53 398.14,-343 378,-343 357.86,-343 341.5,-341.53 341.5,-339.73 341.5,-339.73 341.5,-310.27 341.5,-310.27 341.5,-308.47 357.86,-307 378,-307 398.14,-307 414.5,-308.47 414.5,-310.27 414.5,-310.27 414.5,-339.73 414.5,-339.73"/>
<path fill="none" stroke="green" d="M414.5,-339.73C414.5,-337.92 398.14,-336.45 378,-336.45 357.86,-336.45 341.5,-337.92 341.5,-339.73"/>
<text text-anchor="middle" x="378" y="-321.3" font-family="Times,serif" font-size="14.00">libslapd</text>
</g>
<!-- nsslapd&#45;&gt;slapd -->
<g id="edge3" class="edge">
<title>nsslapd&#45;&gt;slapd</title>
<path fill="none" stroke="black" d="M378,-378.7C378,-370.14 378,-359.67 378,-350.32"/>
<polygon fill="black" stroke="black" points="381.5,-350.44 378,-340.44 374.5,-350.44 381.5,-350.44"/>
</g>
<!-- dbscan -->
<g id="node3" class="node">
<title>dbscan</title>
<path fill="none" stroke="red" d="M561.5,-411.73C561.5,-413.53 546.48,-415 528,-415 509.52,-415 494.5,-413.53 494.5,-411.73 494.5,-411.73 494.5,-382.27 494.5,-382.27 494.5,-380.47 509.52,-379 528,-379 546.48,-379 561.5,-380.47 561.5,-382.27 561.5,-382.27 561.5,-411.73 561.5,-411.73"/>
<path fill="none" stroke="red" d="M561.5,-411.73C561.5,-409.92 546.48,-408.45 528,-408.45 509.52,-408.45 494.5,-409.92 494.5,-411.73"/>
<text text-anchor="middle" x="528" y="-393.3" font-family="Times,serif" font-size="14.00">dbscan</text>
</g>
<!-- dbscan&#45;&gt;slapd -->
<g id="edge2" class="edge">
<title>dbscan&#45;&gt;slapd</title>
<path fill="none" stroke="black" d="M494.34,-380.29C473.21,-370.43 445.73,-357.61 422.78,-346.9"/>
<polygon fill="black" stroke="black" points="424.5,-343.84 413.96,-342.78 421.54,-350.18 424.5,-343.84"/>
</g>
<!-- backldbm -->
<g id="node7" class="node">
<title>backldbm</title>
<path fill="none" stroke="blue" d="M409,-106.5C409,-106.5 489,-106.5 489,-106.5 495,-106.5 501,-112.5 501,-118.5 501,-118.5 501,-186.5 501,-186.5 501,-192.5 495,-198.5 489,-198.5 489,-198.5 409,-198.5 409,-198.5 403,-198.5 397,-192.5 397,-186.5 397,-186.5 397,-118.5 397,-118.5 397,-112.5 403,-106.5 409,-106.5"/>
<text text-anchor="middle" x="449" y="-183.3" font-family="Times,serif" font-size="14.00">libbackldbm</text>
<polyline fill="none" stroke="blue" points="397,-175.5 501,-175.5"/>
<text text-anchor="middle" x="449" y="-160.3" font-family="Times,serif" font-size="14.00">dbapi</text>
<polyline fill="none" stroke="blue" points="397,-152.5 501,-152.5"/>
<text text-anchor="middle" x="410.5" y="-137.3" font-family="Times,serif" font-size="14.00"> </text>
<polyline fill="none" stroke="blue" points="397,-129.5 424,-129.5"/>
<text text-anchor="middle" x="410.5" y="-114.3" font-family="Times,serif" font-size="14.00"> </text>
<polyline fill="none" stroke="blue" points="424,-106.5 424,-152.5"/>
<text text-anchor="middle" x="462.5" y="-137.3" font-family="Times,serif" font-size="14.00">db&#45;mdb</text>
<polyline fill="none" stroke="blue" points="424,-129.5 501,-129.5"/>
<text text-anchor="middle" x="462.5" y="-114.3" font-family="Times,serif" font-size="14.00">liblmdb</text>
</g>
<!-- dbscan&#45;&gt;backldbm -->
<g id="edge1" class="edge">
<title>dbscan&#45;&gt;backldbm</title>
<path fill="none" stroke="black" d="M540,-378.58C559.48,-347.96 593.38,-283.15 568,-235 555.59,-211.46 532.98,-193.42 510.77,-180.37"/>
<polygon fill="black" stroke="black" points="512.73,-177.45 502.29,-175.64 509.32,-183.57 512.73,-177.45"/>
</g>
<!-- repl -->
<g id="node4" class="node">
<title>repl</title>
<path fill="none" stroke="green" d="M558.5,-267.73C558.5,-269.53 526.45,-271 487,-271 447.55,-271 415.5,-269.53 415.5,-267.73 415.5,-267.73 415.5,-238.27 415.5,-238.27 415.5,-236.47 447.55,-235 487,-235 526.45,-235 558.5,-236.47 558.5,-238.27 558.5,-238.27 558.5,-267.73 558.5,-267.73"/>
<path fill="none" stroke="green" d="M558.5,-267.73C558.5,-265.92 526.45,-264.45 487,-264.45 447.55,-264.45 415.5,-265.92 415.5,-267.73"/>
<text text-anchor="middle" x="487" y="-249.3" font-family="Times,serif" font-size="14.00">replication plugin</text>
</g>
<!-- repl&#45;&gt;slapd -->
<g id="edge5" class="edge">
<title>repl&#45;&gt;slapd</title>
<path fill="none" stroke="black" d="M472.09,-267.04C458.37,-276.75 437.67,-290.25 419.12,-301.67"/>
<polygon fill="black" stroke="black" points="417.4,-298.62 410.67,-306.8 421.03,-304.6 417.4,-298.62"/>
</g>
<!-- repl&#45;&gt;backldbm -->
<g id="edge6" class="edge">
<title>repl&#45;&gt;backldbm</title>
<path fill="none" stroke="black" d="M475.11,-234.84C471.46,-227.47 467.49,-218.41 463.72,-209.03"/>
<polygon fill="black" stroke="black" points="467.02,-207.86 460.14,-199.8 460.5,-210.39 467.02,-207.86"/>
</g>
<!-- plugin -->
<g id="node5" class="node">
<title>plugin</title>
<path fill="none" stroke="green" d="M303,-267.73C303,-269.53 286.42,-271 266,-271 245.58,-271 229,-269.53 229,-267.73 229,-267.73 229,-238.27 229,-238.27 229,-236.47 245.58,-235 266,-235 286.42,-235 303,-236.47 303,-238.27 303,-238.27 303,-267.73 303,-267.73"/>
<path fill="none" stroke="green" d="M303,-267.73C303,-265.92 286.42,-264.45 266,-264.45 245.58,-264.45 229,-265.92 229,-267.73"/>
<text text-anchor="middle" x="266" y="-249.3" font-family="Times,serif" font-size="14.00">a plugin</text>
</g>
<!-- plugin&#45;&gt;slapd -->
<g id="edge14" class="edge">
<title>plugin&#45;&gt;slapd</title>
<path fill="none" stroke="black" d="M292.45,-267.15C308.74,-276.5 329.58,-289.31 346.66,-300.4"/>
<polygon fill="black" stroke="black" points="344.69,-303.29 354.97,-305.86 348.54,-297.44 344.69,-303.29"/>
</g>
<!-- slapd&#45;&gt;repl -->
<g id="edge7" class="edge">
<title>slapd&#45;&gt;repl</title>
<path fill="none" stroke="black" d="M399.03,-306.7C413.89,-296.48 434,-283.52 451.31,-273.02"/>
<polygon fill="black" stroke="black" points="453.03,-276.07 459.81,-267.93 449.43,-270.06 453.03,-276.07"/>
</g>
<!-- slapd&#45;&gt;plugin -->
<g id="edge13" class="edge">
<title>slapd&#45;&gt;plugin</title>
<path fill="none" stroke="black" d="M345.92,-307.59C328.4,-297.35 307.14,-284.12 290.87,-273.36"/>
<polygon fill="black" stroke="black" points="292.98,-270.56 282.72,-267.88 289.07,-276.37 292.98,-270.56"/>
</g>
<!-- slapd&#45;&gt;backldbm -->
<g id="edge4" class="edge">
<title>slapd&#45;&gt;backldbm</title>
<path fill="none" stroke="black" d="M376.04,-306.64C378.94,-288.48 387.86,-259.3 398,-235 401.66,-226.24 405.89,-217.13 410.35,-208.32"/>
<polygon fill="black" stroke="black" points="413.43,-209.98 414.96,-199.49 407.23,-206.73 413.43,-209.98"/>
</g>
<!-- backldbm&#45;&gt;repl -->
<g id="edge8" class="edge">
<title>backldbm&#45;&gt;repl</title>
<path fill="none" stroke="black" d="M473.04,-198.39C476.5,-207.09 479.74,-215.98 482.34,-223.95"/>
<polygon fill="black" stroke="black" points="478.95,-224.84 485.21,-233.39 485.65,-222.81 478.95,-224.84"/>
</g>
<!-- backldbm&#45;&gt;slapd -->
<g id="edge9" class="edge">
<title>backldbm&#45;&gt;slapd</title>
<path fill="none" stroke="black" d="M433.05,-198.15C427.29,-209.95 421.09,-222.81 416,-235 407.64,-255.02 400.11,-278.37 393.55,-296.13"/>
<polygon fill="black" stroke="black" points="390.37,-294.64 390.02,-305.23 396.9,-297.17 390.37,-294.64"/>
</g>
<!-- backbdb -->
<g id="node8" class="node">
<title>backbdb</title>
<path fill="none" stroke="blue" d="M397,-0.5C397,-0.5 501,-0.5 501,-0.5 507,-0.5 513,-6.5 513,-12.5 513,-12.5 513,-57.5 513,-57.5 513,-63.5 507,-69.5 501,-69.5 501,-69.5 397,-69.5 397,-69.5 391,-69.5 385,-63.5 385,-57.5 385,-57.5 385,-12.5 385,-12.5 385,-6.5 391,-0.5 397,-0.5"/>
<text text-anchor="middle" x="449" y="-54.3" font-family="Times,serif" font-size="14.00">libback&#45;bdb</text>
<polyline fill="none" stroke="blue" points="385,-46.5 513,-46.5"/>
<text text-anchor="middle" x="449" y="-31.3" font-family="Times,serif" font-size="14.00">db&#45;bdb</text>
<polyline fill="none" stroke="blue" points="385,-23.5 513,-23.5"/>
<text text-anchor="middle" x="449" y="-8.3" font-family="Times,serif" font-size="14.00">libdb&#45;5.3&#45;389ds</text>
</g>
<!-- backldbm&#45;&gt;backbdb -->
<g id="edge10" class="edge">
<title>backldbm&#45;&gt;backbdb</title>
<path fill="none" stroke="black" d="M442.4,-106.51C442.2,-97.98 442.2,-89.05 442.41,-80.53"/>
<polygon fill="black" stroke="black" points="445.9,-80.87 442.77,-70.75 438.9,-80.62 445.9,-80.87"/>
</g>
<!-- backbdb&#45;&gt;slapd -->
<g id="edge12" class="edge">
<title>backbdb&#45;&gt;slapd</title>
<path fill="none" stroke="black" d="M412.13,-69.14C402.54,-79.88 393.4,-92.53 388,-106 362.47,-169.67 368.05,-252.32 373.51,-295.26"/>
<polygon fill="black" stroke="black" points="370.02,-295.58 374.85,-305.01 376.95,-294.63 370.02,-295.58"/>
</g>
<!-- backbdb&#45;&gt;backldbm -->
<g id="edge11" class="edge">
<title>backbdb&#45;&gt;backldbm</title>
<path fill="none" stroke="black" d="M455.18,-69.24C455.58,-77.32 455.77,-86.18 455.75,-95"/>
<polygon fill="black" stroke="black" points="452.25,-94.96 455.62,-105 459.25,-95.05 452.25,-94.96"/>
</g>
</g>
</svg>
