<?xml version="1.0" encoding="UTF-8" standalone="no"?>
<!DOCTYPE svg PUBLIC "-//W3C//DTD SVG 1.1//EN"
 "http://www.w3.org/Graphics/SVG/1.1/DTD/svg11.dtd">
<!-- Generated by graphviz version 7.1.0 (0)
 -->
<!-- Title: g Pages: 1 -->
<svg width="954pt" height="198pt"
 viewBox="0.00 0.00 954.00 198.00" xmlns="http://www.w3.org/2000/svg" xmlns:xlink="http://www.w3.org/1999/xlink">
<g id="graph0" class="graph" transform="scale(1 1) rotate(0) translate(4 194)">
<title>g</title>
<polygon fill="white" stroke="none" points="-4,4 -4,-194 950,-194 950,4 -4,4"/>
<!-- nodehdr -->
<g id="node1" class="node">
<title>nodehdr</title>
<polygon fill="none" stroke="black" points="189.5,-166.5 189.5,-189.5 370.5,-189.5 370.5,-166.5 189.5,-166.5"/>
<text text-anchor="middle" x="280" y="-174.3" font-family="Times,serif" font-size="14.00">COW B+Tree txn_id=2</text>
</g>
<!-- txn_1 -->
<g id="node2" class="node">
<title>txn_1</title>
<polygon fill="none" stroke="black" points="389,-166.5 389,-189.5 445,-189.5 445,-166.5 389,-166.5"/>
<text text-anchor="middle" x="417" y="-174.3" font-family="Times,serif" font-size="14.00">txn_1</text>
</g>
<!-- node_0x60200000fc40 -->
<g id="node4" class="node">
<title>node_0x60200000fc40</title>
<polygon fill="none" stroke="black" points="268.5,-83.5 268.5,-129.5 565.5,-129.5 565.5,-83.5 268.5,-83.5"/>
<text text-anchor="middle" x="417" y="-114.3" font-family="Times,serif" font-size="14.00">node=0x60200000fc40 items=1 txn=1</text>
<polyline fill="none" stroke="black" points="268.5,-106.5 565.5,-106.5"/>
<text text-anchor="middle" x="280.5" y="-91.3" font-family="Times,serif" font-size="14.00"> </text>
<polyline fill="none" stroke="black" points="292.5,-83.5 292.5,-106.5"/>
<text text-anchor="middle" x="307.5" y="-91.3" font-family="Times,serif" font-size="14.00">4</text>
<polyline fill="none" stroke="black" points="322.5,-83.5 322.5,-106.5"/>
<text text-anchor="middle" x="335" y="-91.3" font-family="Times,serif" font-size="14.00"> </text>
<polyline fill="none" stroke="black" points="347.5,-83.5 347.5,-106.5"/>
<text text-anchor="middle" x="362" y="-91.3" font-family="Times,serif" font-size="14.00">0</text>
<polyline fill="none" stroke="black" points="376.5,-83.5 376.5,-106.5"/>
<text text-anchor="middle" x="389" y="-91.3" font-family="Times,serif" font-size="14.00"> </text>
<polyline fill="none" stroke="black" points="401.5,-83.5 401.5,-106.5"/>
<text text-anchor="middle" x="416.5" y="-91.3" font-family="Times,serif" font-size="14.00">0</text>
<polyline fill="none" stroke="black" points="431.5,-83.5 431.5,-106.5"/>
<text text-anchor="middle" x="444" y="-91.3" font-family="Times,serif" font-size="14.00"> </text>
<polyline fill="none" stroke="black" points="456.5,-83.5 456.5,-106.5"/>
<text text-anchor="middle" x="471" y="-91.3" font-family="Times,serif" font-size="14.00">0</text>
<polyline fill="none" stroke="black" points="485.5,-83.5 485.5,-106.5"/>
<text text-anchor="middle" x="498" y="-91.3" font-family="Times,serif" font-size="14.00"> </text>
<polyline fill="none" stroke="black" points="510.5,-83.5 510.5,-106.5"/>
<text text-anchor="middle" x="525.5" y="-91.3" font-family="Times,serif" font-size="14.00">0</text>
<polyline fill="none" stroke="black" points="540.5,-83.5 540.5,-106.5"/>
<text text-anchor="middle" x="553" y="-91.3" font-family="Times,serif" font-size="14.00"> </text>
</g>
<!-- txn_1&#45;&gt;node_0x60200000fc40 -->
<g id="edge1" class="edge">
<title>txn_1&#45;&gt;node_0x60200000fc40</title>
<path fill="none" stroke="black" d="M417,-166.75C417,-159.77 417,-150.1 417,-140.61"/>
<polygon fill="black" stroke="black" points="420.5,-140.81 417,-130.81 413.5,-140.81 420.5,-140.81"/>
</g>
<!-- txn_2 -->
<g id="node3" class="node">
<title>txn_2</title>
<polygon fill="none" stroke="blue" points="771,-166.5 771,-189.5 827,-189.5 827,-166.5 771,-166.5"/>
<text text-anchor="middle" x="799" y="-174.3" font-family="Times,serif" font-size="14.00">txn_2</text>
</g>
<!-- node_0x60200000ff40 -->
<g id="node5" class="node">
<title>node_0x60200000ff40</title>
<polygon fill="none" stroke="blue" points="652,-83.5 652,-129.5 946,-129.5 946,-83.5 652,-83.5"/>
<text text-anchor="middle" x="799" y="-114.3" font-family="Times,serif" font-size="14.00">node=0x60200000ff40 items=1 txn=2</text>
<polyline fill="none" stroke="blue" points="652,-106.5 946,-106.5"/>
<text text-anchor="middle" x="664" y="-91.3" font-family="Times,serif" font-size="14.00"> </text>
<polyline fill="none" stroke="blue" points="676,-83.5 676,-106.5"/>
<text text-anchor="middle" x="690.5" y="-91.3" font-family="Times,serif" font-size="14.00">4</text>
<polyline fill="none" stroke="blue" points="705,-83.5 705,-106.5"/>
<text text-anchor="middle" x="717.5" y="-91.3" font-family="Times,serif" font-size="14.00"> </text>
<polyline fill="none" stroke="blue" points="730,-83.5 730,-106.5"/>
<text text-anchor="middle" x="744.5" y="-91.3" font-family="Times,serif" font-size="14.00">0</text>
<polyline fill="none" stroke="blue" points="759,-83.5 759,-106.5"/>
<text text-anchor="middle" x="771.5" y="-91.3" font-family="Times,serif" font-size="14.00"> </text>
<polyline fill="none" stroke="blue" points="784,-83.5 784,-106.5"/>
<text text-anchor="middle" x="798.5" y="-91.3" font-family="Times,serif" font-size="14.00">0</text>
<polyline fill="none" stroke="blue" points="813,-83.5 813,-106.5"/>
<text text-anchor="middle" x="825.5" y="-91.3" font-family="Times,serif" font-size="14.00"> </text>
<polyline fill="none" stroke="blue" points="838,-83.5 838,-106.5"/>
<text text-anchor="middle" x="852.5" y="-91.3" font-family="Times,serif" font-size="14.00">0</text>
<polyline fill="none" stroke="blue" points="867,-83.5 867,-106.5"/>
<text text-anchor="middle" x="879.5" y="-91.3" font-family="Times,serif" font-size="14.00"> </text>
<polyline fill="none" stroke="blue" points="892,-83.5 892,-106.5"/>
<text text-anchor="middle" x="906.5" y="-91.3" font-family="Times,serif" font-size="14.00">0</text>
<polyline fill="none" stroke="blue" points="921,-83.5 921,-106.5"/>
<text text-anchor="middle" x="933.5" y="-91.3" font-family="Times,serif" font-size="14.00"> </text>
</g>
<!-- txn_2&#45;&gt;node_0x60200000ff40 -->
<g id="edge2" class="edge">
<title>txn_2&#45;&gt;node_0x60200000ff40</title>
<path fill="none" stroke="black" d="M799,-166.75C799,-159.77 799,-150.1 799,-140.61"/>
<polygon fill="black" stroke="black" points="802.5,-140.81 799,-130.81 795.5,-140.81 802.5,-140.81"/>
</g>
<!-- node_0x60200000fe40 -->
<g id="node6" class="node">
<title>node_0x60200000fe40</title>
<polygon fill="none" stroke="black" points="0,-0.5 0,-46.5 298,-46.5 298,-0.5 0,-0.5"/>
<text text-anchor="middle" x="149" y="-31.3" font-family="Times,serif" font-size="14.00">node=0x60200000fe40 items=3 txn=0</text>
<polyline fill="none" stroke="black" points="0,-23.5 298,-23.5"/>
<text text-anchor="middle" x="12" y="-8.3" font-family="Times,serif" font-size="14.00"> </text>
<polyline fill="none" stroke="black" points="24,-0.5 24,-23.5"/>
<text text-anchor="middle" x="39" y="-8.3" font-family="Times,serif" font-size="14.00">1</text>
<polyline fill="none" stroke="black" points="54,-0.5 54,-23.5"/>
<text text-anchor="middle" x="66.5" y="-8.3" font-family="Times,serif" font-size="14.00"> </text>
<polyline fill="none" stroke="black" points="79,-0.5 79,-23.5"/>
<text text-anchor="middle" x="94" y="-8.3" font-family="Times,serif" font-size="14.00">2</text>
<polyline fill="none" stroke="black" points="109,-0.5 109,-23.5"/>
<text text-anchor="middle" x="121.5" y="-8.3" font-family="Times,serif" font-size="14.00"> </text>
<polyline fill="none" stroke="black" points="134,-0.5 134,-23.5"/>
<text text-anchor="middle" x="148.5" y="-8.3" font-family="Times,serif" font-size="14.00">3</text>
<polyline fill="none" stroke="black" points="163,-0.5 163,-23.5"/>
<text text-anchor="middle" x="175.5" y="-8.3" font-family="Times,serif" font-size="14.00"> </text>
<polyline fill="none" stroke="black" points="188,-0.5 188,-23.5"/>
<text text-anchor="middle" x="203" y="-8.3" font-family="Times,serif" font-size="14.00">0</text>
<polyline fill="none" stroke="black" points="218,-0.5 218,-23.5"/>
<text text-anchor="middle" x="230.5" y="-8.3" font-family="Times,serif" font-size="14.00"> </text>
<polyline fill="none" stroke="black" points="243,-0.5 243,-23.5"/>
<text text-anchor="middle" x="258" y="-8.3" font-family="Times,serif" font-size="14.00">0</text>
<polyline fill="none" stroke="black" points="273,-0.5 273,-23.5"/>
<text text-anchor="middle" x="285.5" y="-8.3" font-family="Times,serif" font-size="14.00"> </text>
</g>
<!-- node_0x60200000fc40&#45;&gt;node_0x60200000fe40 -->
<g id="edge3" class="edge">
<title>node_0x60200000fc40:f0&#45;&gt;node_0x60200000fe40</title>
<path fill="none" stroke="black" d="M267,-94.5C233.14,-94.5 200.51,-72.92 178.17,-53.73"/>
<polygon fill="black" stroke="black" points="180.76,-51.34 170.97,-47.27 176.09,-56.55 180.76,-51.34"/>
</g>
<!-- node_0x60200000fd40 -->
<g id="node7" class="node">
<title>node_0x60200000fd40</title>
<polygon fill="none" stroke="black" points="316.5,-0.5 316.5,-46.5 615.5,-46.5 615.5,-0.5 316.5,-0.5"/>
<text text-anchor="middle" x="466" y="-31.3" font-family="Times,serif" font-size="14.00">node=0x60200000fd40 items=3 txn=1</text>
<polyline fill="none" stroke="black" points="316.5,-23.5 615.5,-23.5"/>
<text text-anchor="middle" x="328.5" y="-8.3" font-family="Times,serif" font-size="14.00"> </text>
<polyline fill="none" stroke="black" points="340.5,-0.5 340.5,-23.5"/>
<text text-anchor="middle" x="355.5" y="-8.3" font-family="Times,serif" font-size="14.00">4</text>
<polyline fill="none" stroke="black" points="370.5,-0.5 370.5,-23.5"/>
<text text-anchor="middle" x="383" y="-8.3" font-family="Times,serif" font-size="14.00"> </text>
<polyline fill="none" stroke="black" points="395.5,-0.5 395.5,-23.5"/>
<text text-anchor="middle" x="410.5" y="-8.3" font-family="Times,serif" font-size="14.00">5</text>
<polyline fill="none" stroke="black" points="425.5,-0.5 425.5,-23.5"/>
<text text-anchor="middle" x="438" y="-8.3" font-family="Times,serif" font-size="14.00"> </text>
<polyline fill="none" stroke="black" points="450.5,-0.5 450.5,-23.5"/>
<text text-anchor="middle" x="465.5" y="-8.3" font-family="Times,serif" font-size="14.00">6</text>
<polyline fill="none" stroke="black" points="480.5,-0.5 480.5,-23.5"/>
<text text-anchor="middle" x="493" y="-8.3" font-family="Times,serif" font-size="14.00"> </text>
<polyline fill="none" stroke="black" points="505.5,-0.5 505.5,-23.5"/>
<text text-anchor="middle" x="520.5" y="-8.3" font-family="Times,serif" font-size="14.00">0</text>
<polyline fill="none" stroke="black" points="535.5,-0.5 535.5,-23.5"/>
<text text-anchor="middle" x="548" y="-8.3" font-family="Times,serif" font-size="14.00"> </text>
<polyline fill="none" stroke="black" points="560.5,-0.5 560.5,-23.5"/>
<text text-anchor="middle" x="575.5" y="-8.3" font-family="Times,serif" font-size="14.00">0</text>
<polyline fill="none" stroke="black" points="590.5,-0.5 590.5,-23.5"/>
<text text-anchor="middle" x="603" y="-8.3" font-family="Times,serif" font-size="14.00"> </text>
</g>
<!-- node_0x60200000fc40&#45;&gt;node_0x60200000fd40 -->
<g id="edge4" class="edge">
<title>node_0x60200000fc40:f1&#45;&gt;node_0x60200000fd40</title>
<path fill="none" stroke="black" d="M335,-83C335,-70.76 339.82,-61.07 347.62,-53.39"/>
<polygon fill="black" stroke="black" points="349.57,-56.32 355.16,-47.32 345.18,-50.87 349.57,-56.32"/>
</g>
<!-- node_0x60200000ff40&#45;&gt;node_0x60200000fe40 -->
<g id="edge5" class="edge">
<title>node_0x60200000ff40:f0&#45;&gt;node_0x60200000fe40</title>
<path fill="none" stroke="blue" d="M651,-94.5C616.4,-94.5 608.26,-87.87 574,-83 459.04,-66.67 427.49,-63.62 309.19,-47.3"/>
<polygon fill="blue" stroke="blue" points="309.74,-43.84 299.35,-45.94 308.78,-50.77 309.74,-43.84"/>
</g>
<!-- node_0x602000011040 -->
<g id="node8" class="node">
<title>node_0x602000011040</title>
<polygon fill="none" stroke="blue" points="634,-0.5 634,-46.5 936,-46.5 936,-0.5 634,-0.5"/>
<text text-anchor="middle" x="785" y="-31.3" font-family="Times,serif" font-size="14.00">node=0x602000011040 items=3 txn=2</text>
<polyline fill="none" stroke="blue" points="634,-23.5 936,-23.5"/>
<text text-anchor="middle" x="646.5" y="-8.3" font-family="Times,serif" font-size="14.00"> </text>
<polyline fill="none" stroke="blue" points="659,-0.5 659,-23.5"/>
<text text-anchor="middle" x="674" y="-8.3" font-family="Times,serif" font-size="14.00">4</text>
<polyline fill="none" stroke="blue" points="689,-0.5 689,-23.5"/>
<text text-anchor="middle" x="701.5" y="-8.3" font-family="Times,serif" font-size="14.00"> </text>
<polyline fill="none" stroke="blue" points="714,-0.5 714,-23.5"/>
<text text-anchor="middle" x="729" y="-8.3" font-family="Times,serif" font-size="14.00">5</text>
<polyline fill="none" stroke="blue" points="744,-0.5 744,-23.5"/>
<text text-anchor="middle" x="756.5" y="-8.3" font-family="Times,serif" font-size="14.00"> </text>
<polyline fill="none" stroke="blue" points="769,-0.5 769,-23.5"/>
<text text-anchor="middle" x="784.5" y="-8.3" font-family="Times,serif" font-size="14.00">7</text>
<polyline fill="none" stroke="blue" points="800,-0.5 800,-23.5"/>
<text text-anchor="middle" x="812.5" y="-8.3" font-family="Times,serif" font-size="14.00"> </text>
<polyline fill="none" stroke="blue" points="825,-0.5 825,-23.5"/>
<text text-anchor="middle" x="840" y="-8.3" font-family="Times,serif" font-size="14.00">0</text>
<polyline fill="none" stroke="blue" points="855,-0.5 855,-23.5"/>
<text text-anchor="middle" x="867.5" y="-8.3" font-family="Times,serif" font-size="14.00"> </text>
<polyline fill="none" stroke="blue" points="880,-0.5 880,-23.5"/>
<text text-anchor="middle" x="895" y="-8.3" font-family="Times,serif" font-size="14.00">0</text>
<polyline fill="none" stroke="blue" points="910,-0.5 910,-23.5"/>
<text text-anchor="middle" x="923" y="-8.3" font-family="Times,serif" font-size="14.00"> </text>
</g>
<!-- node_0x60200000ff40&#45;&gt;node_0x602000011040 -->
<g id="edge6" class="edge">
<title>node_0x60200000ff40:f1&#45;&gt;node_0x602000011040</title>
<path fill="none" stroke="blue" d="M717,-83C717,-71.55 722.61,-61.86 730.6,-53.85"/>
<polygon fill="blue" stroke="blue" points="732.81,-56.56 738.12,-47.39 728.25,-51.25 732.81,-56.56"/>
</g>
</g>
</svg>
