<?xml version="1.0" encoding="UTF-8" standalone="no"?>
<!DOCTYPE svg PUBLIC "-//W3C//DTD SVG 1.1//EN"
 "http://www.w3.org/Graphics/SVG/1.1/DTD/svg11.dtd">
<!-- Generated by graphviz version 7.1.0 (0)
 -->
<!-- Title: g Pages: 1 -->
<svg width="626pt" height="198pt"
 viewBox="0.00 0.00 626.00 198.00" xmlns="http://www.w3.org/2000/svg" xmlns:xlink="http://www.w3.org/1999/xlink">
<g id="graph0" class="graph" transform="scale(1 1) rotate(0) translate(4 194)">
<title>g</title>
<polygon fill="white" stroke="none" points="-4,4 -4,-194 622,-194 622,4 -4,4"/>
<!-- nodehdr -->
<g id="node1" class="node">
<title>nodehdr</title>
<polygon fill="none" stroke="black" points="188.5,-166.5 188.5,-189.5 369.5,-189.5 369.5,-166.5 188.5,-166.5"/>
<text text-anchor="middle" x="279" y="-174.3" font-family="Times,serif" font-size="14.00">COW B+Tree txn_id=2</text>
</g>
<!-- txn_2 -->
<g id="node2" class="node">
<title>txn_2</title>
<polygon fill="none" stroke="blue" points="388,-166.5 388,-189.5 444,-189.5 444,-166.5 388,-166.5"/>
<text text-anchor="middle" x="416" y="-174.3" font-family="Times,serif" font-size="14.00">txn_2</text>
</g>
<!-- node_0x60200000ff40 -->
<g id="node3" class="node">
<title>node_0x60200000ff40</title>
<polygon fill="none" stroke="blue" points="269,-83.5 269,-129.5 563,-129.5 563,-83.5 269,-83.5"/>
<text text-anchor="middle" x="416" y="-114.3" font-family="Times,serif" font-size="14.00">node=0x60200000ff40 items=1 txn=2</text>
<polyline fill="none" stroke="blue" points="269,-106.5 563,-106.5"/>
<text text-anchor="middle" x="281" y="-91.3" font-family="Times,serif" font-size="14.00"> </text>
<polyline fill="none" stroke="blue" points="293,-83.5 293,-106.5"/>
<text text-anchor="middle" x="307.5" y="-91.3" font-family="Times,serif" font-size="14.00">4</text>
<polyline fill="none" stroke="blue" points="322,-83.5 322,-106.5"/>
<text text-anchor="middle" x="334.5" y="-91.3" font-family="Times,serif" font-size="14.00"> </text>
<polyline fill="none" stroke="blue" points="347,-83.5 347,-106.5"/>
<text text-anchor="middle" x="361.5" y="-91.3" font-family="Times,serif" font-size="14.00">0</text>
<polyline fill="none" stroke="blue" points="376,-83.5 376,-106.5"/>
<text text-anchor="middle" x="388.5" y="-91.3" font-family="Times,serif" font-size="14.00"> </text>
<polyline fill="none" stroke="blue" points="401,-83.5 401,-106.5"/>
<text text-anchor="middle" x="415.5" y="-91.3" font-family="Times,serif" font-size="14.00">0</text>
<polyline fill="none" stroke="blue" points="430,-83.5 430,-106.5"/>
<text text-anchor="middle" x="442.5" y="-91.3" font-family="Times,serif" font-size="14.00"> </text>
<polyline fill="none" stroke="blue" points="455,-83.5 455,-106.5"/>
<text text-anchor="middle" x="469.5" y="-91.3" font-family="Times,serif" font-size="14.00">0</text>
<polyline fill="none" stroke="blue" points="484,-83.5 484,-106.5"/>
<text text-anchor="middle" x="496.5" y="-91.3" font-family="Times,serif" font-size="14.00"> </text>
<polyline fill="none" stroke="blue" points="509,-83.5 509,-106.5"/>
<text text-anchor="middle" x="523.5" y="-91.3" font-family="Times,serif" font-size="14.00">0</text>
<polyline fill="none" stroke="blue" points="538,-83.5 538,-106.5"/>
<text text-anchor="middle" x="550.5" y="-91.3" font-family="Times,serif" font-size="14.00"> </text>
</g>
<!-- txn_2&#45;&gt;node_0x60200000ff40 -->
<g id="edge1" class="edge">
<title>txn_2&#45;&gt;node_0x60200000ff40</title>
<path fill="none" stroke="black" d="M416,-166.75C416,-159.77 416,-150.1 416,-140.61"/>
<polygon fill="black" stroke="black" points="419.5,-140.81 416,-130.81 412.5,-140.81 419.5,-140.81"/>
</g>
<!-- node_0x60200000fe40 -->
<g id="node4" class="node">
<title>node_0x60200000fe40</title>
<polygon fill="none" stroke="black" points="0,-0.5 0,-46.5 298,-46.5 298,-0.5 0,-0.5"/>
<text text-anchor="middle" x="149" y="-31.3" font-family="Times,serif" font-size="14.00">node=0x60200000fe40 items=3 txn=0</text>
<polyline fill="none" stroke="black" points="0,-23.5 298,-23.5"/>
<text text-anchor="middle" x="12" y="-8.3" font-family="Times,serif" font-size="14.00"> </text>
<polyline fill="none" stroke="black" points="24,-0.5 24,-23.5"/>
<text text-anchor="middle" x="39" y="-8.3" font-family="Times,serif" font-size="14.00">1</text>
<polyline fill="none" stroke="black" points="54,-0.5 54,-23.5"/>
<text text-anchor="middle" x="66.5" y="-8.3" font-family="Times,serif" font-size="14.00"> </text>
<polyline fill="none" stroke="black" points="79,-0.5 79,-23.5"/>
<text text-anchor="middle" x="94" y="-8.3" font-family="Times,serif" font-size="14.00">2</text>
<polyline fill="none" stroke="black" points="109,-0.5 109,-23.5"/>
<text text-anchor="middle" x="121.5" y="-8.3" font-family="Times,serif" font-size="14.00"> </text>
<polyline fill="none" stroke="black" points="134,-0.5 134,-23.5"/>
<text text-anchor="middle" x="148.5" y="-8.3" font-family="Times,serif" font-size="14.00">3</text>
<polyline fill="none" stroke="black" points="163,-0.5 163,-23.5"/>
<text text-anchor="middle" x="175.5" y="-8.3" font-family="Times,serif" font-size="14.00"> </text>
<polyline fill="none" stroke="black" points="188,-0.5 188,-23.5"/>
<text text-anchor="middle" x="203" y="-8.3" font-family="Times,serif" font-size="14.00">0</text>
<polyline fill="none" stroke="black" points="218,-0.5 218,-23.5"/>
<text text-anchor="middle" x="230.5" y="-8.3" font-family="Times,serif" font-size="14.00"> </text>
<polyline fill="none" stroke="black" points="243,-0.5 243,-23.5"/>
<text text-anchor="middle" x="258" y="-8.3" font-family="Times,serif" font-size="14.00">0</text>
<polyline fill="none" stroke="black" points="273,-0.5 273,-23.5"/>
<text text-anchor="middle" x="285.5" y="-8.3" font-family="Times,serif" font-size="14.00"> </text>
</g>
<!-- node_0x60200000ff40&#45;&gt;node_0x60200000fe40 -->
<g id="edge2" class="edge">
<title>node_0x60200000ff40:f0&#45;&gt;node_0x60200000fe40</title>
<path fill="none" stroke="blue" d="M268,-94.5C233.93,-94.5 201.01,-72.92 178.47,-53.73"/>
<polygon fill="blue" stroke="blue" points="180.99,-51.29 171.19,-47.27 176.35,-56.52 180.99,-51.29"/>
</g>
<!-- node_0x602000011040 -->
<g id="node5" class="node">
<title>node_0x602000011040</title>
<polygon fill="none" stroke="blue" points="316,-0.5 316,-46.5 618,-46.5 618,-0.5 316,-0.5"/>
<text text-anchor="middle" x="467" y="-31.3" font-family="Times,serif" font-size="14.00">node=0x602000011040 items=3 txn=2</text>
<polyline fill="none" stroke="blue" points="316,-23.5 618,-23.5"/>
<text text-anchor="middle" x="328.5" y="-8.3" font-family="Times,serif" font-size="14.00"> </text>
<polyline fill="none" stroke="blue" points="341,-0.5 341,-23.5"/>
<text text-anchor="middle" x="356" y="-8.3" font-family="Times,serif" font-size="14.00">4</text>
<polyline fill="none" stroke="blue" points="371,-0.5 371,-23.5"/>
<text text-anchor="middle" x="383.5" y="-8.3" font-family="Times,serif" font-size="14.00"> </text>
<polyline fill="none" stroke="blue" points="396,-0.5 396,-23.5"/>
<text text-anchor="middle" x="411" y="-8.3" font-family="Times,serif" font-size="14.00">5</text>
<polyline fill="none" stroke="blue" points="426,-0.5 426,-23.5"/>
<text text-anchor="middle" x="438.5" y="-8.3" font-family="Times,serif" font-size="14.00"> </text>
<polyline fill="none" stroke="blue" points="451,-0.5 451,-23.5"/>
<text text-anchor="middle" x="466.5" y="-8.3" font-family="Times,serif" font-size="14.00">7</text>
<polyline fill="none" stroke="blue" points="482,-0.5 482,-23.5"/>
<text text-anchor="middle" x="494.5" y="-8.3" font-family="Times,serif" font-size="14.00"> </text>
<polyline fill="none" stroke="blue" points="507,-0.5 507,-23.5"/>
<text text-anchor="middle" x="522" y="-8.3" font-family="Times,serif" font-size="14.00">0</text>
<polyline fill="none" stroke="blue" points="537,-0.5 537,-23.5"/>
<text text-anchor="middle" x="549.5" y="-8.3" font-family="Times,serif" font-size="14.00"> </text>
<polyline fill="none" stroke="blue" points="562,-0.5 562,-23.5"/>
<text text-anchor="middle" x="577" y="-8.3" font-family="Times,serif" font-size="14.00">0</text>
<polyline fill="none" stroke="blue" points="592,-0.5 592,-23.5"/>
<text text-anchor="middle" x="605" y="-8.3" font-family="Times,serif" font-size="14.00"> </text>
</g>
<!-- node_0x60200000ff40&#45;&gt;node_0x602000011040 -->
<g id="edge3" class="edge">
<title>node_0x60200000ff40:f1&#45;&gt;node_0x602000011040</title>
<path fill="none" stroke="blue" d="M334,-83C334,-70.8 338.75,-61.12 346.45,-53.44"/>
<polygon fill="blue" stroke="blue" points="348.36,-56.4 353.9,-47.37 343.94,-50.98 348.36,-56.4"/>
</g>
</g>
</svg>
