<?xml version="1.0" encoding="UTF-8" standalone="no"?>
<!DOCTYPE svg PUBLIC "-//W3C//DTD SVG 1.1//EN"
 "http://www.w3.org/Graphics/SVG/1.1/DTD/svg11.dtd">
<!-- Generated by graphviz version 7.1.0 (0)
 -->
<!-- Title: api Pages: 1 -->
<svg width="1082pt" height="116pt"
 viewBox="0.00 0.00 1082.00 116.00" xmlns="http://www.w3.org/2000/svg" xmlns:xlink="http://www.w3.org/1999/xlink">
<g id="graph0" class="graph" transform="scale(1 1) rotate(0) translate(4 112)">
<title>api</title>
<polygon fill="white" stroke="none" points="-4,4 -4,-112 1078,-112 1078,4 -4,4"/>
<!-- title -->
<g id="node1" class="node">
<title>title</title>
<text text-anchor="middle" x="188.5" y="-85.6" font-family="Times,serif" font-size="18.00">Upstream and downstream relationship</text>
</g>
<!-- upstream -->
<g id="node2" class="node">
<title>upstream</title>
<path fill="none" stroke="red" d="M541.5,-104.73C541.5,-106.53 508.78,-108 468.5,-108 428.22,-108 395.5,-106.53 395.5,-104.73 395.5,-104.73 395.5,-75.27 395.5,-75.27 395.5,-73.47 428.22,-72 468.5,-72 508.78,-72 541.5,-73.47 541.5,-75.27 541.5,-75.27 541.5,-104.73 541.5,-104.73"/>
<path fill="none" stroke="red" d="M541.5,-104.73C541.5,-102.92 508.78,-101.45 468.5,-101.45 428.22,-101.45 395.5,-102.92 395.5,-104.73"/>
<text text-anchor="middle" x="468.5" y="-86.3" font-family="Times,serif" font-size="14.00">upstream (github)</text>
</g>
<!-- rawhide -->
<g id="node3" class="node">
<title>rawhide</title>
<path fill="none" stroke="red" d="M513,-32.73C513,-34.53 493.05,-36 468.5,-36 443.95,-36 424,-34.53 424,-32.73 424,-32.73 424,-3.27 424,-3.27 424,-1.47 443.95,0 468.5,0 493.05,0 513,-1.47 513,-3.27 513,-3.27 513,-32.73 513,-32.73"/>
<path fill="none" stroke="red" d="M513,-32.73C513,-30.92 493.05,-29.45 468.5,-29.45 443.95,-29.45 424,-30.92 424,-32.73"/>
<text text-anchor="middle" x="468.5" y="-14.3" font-family="Times,serif" font-size="14.00">rawhide ()</text>
</g>
<!-- upstream&#45;&gt;rawhide -->
<g id="edge1" class="edge">
<title>upstream&#45;&gt;rawhide</title>
<path fill="none" stroke="black" d="M468.5,-71.7C468.5,-63.14 468.5,-52.67 468.5,-43.32"/>
<polygon fill="black" stroke="black" points="472,-43.44 468.5,-33.44 465,-43.44 472,-43.44"/>
</g>
<!-- eln -->
<g id="node4" class="node">
<title>eln</title>
<path fill="none" stroke="red" d="M613.5,-104.73C613.5,-106.53 601.4,-108 586.5,-108 571.6,-108 559.5,-106.53 559.5,-104.73 559.5,-104.73 559.5,-75.27 559.5,-75.27 559.5,-73.47 571.6,-72 586.5,-72 601.4,-72 613.5,-73.47 613.5,-75.27 613.5,-75.27 613.5,-104.73 613.5,-104.73"/>
<path fill="none" stroke="red" d="M613.5,-104.73C613.5,-102.92 601.4,-101.45 586.5,-101.45 571.6,-101.45 559.5,-102.92 559.5,-104.73"/>
<text text-anchor="middle" x="586.5" y="-86.3" font-family="Times,serif" font-size="14.00">eln ()</text>
</g>
<!-- fedora -->
<g id="node5" class="node">
<title>fedora</title>
<path fill="none" stroke="red" d="M713,-104.73C713,-106.53 694.85,-108 672.5,-108 650.15,-108 632,-106.53 632,-104.73 632,-104.73 632,-75.27 632,-75.27 632,-73.47 650.15,-72 672.5,-72 694.85,-72 713,-73.47 713,-75.27 713,-75.27 713,-104.73 713,-104.73"/>
<path fill="none" stroke="red" d="M713,-104.73C713,-102.92 694.85,-101.45 672.5,-101.45 650.15,-101.45 632,-102.92 632,-104.73"/>
<text text-anchor="middle" x="672.5" y="-86.3" font-family="Times,serif" font-size="14.00">Fedora ()</text>
</g>
<!-- centosStream -->
<g id="node6" class="node">
<title>centosStream</title>
<path fill="none" stroke="red" d="M874,-104.73C874,-106.53 841.95,-108 802.5,-108 763.05,-108 731,-106.53 731,-104.73 731,-104.73 731,-75.27 731,-75.27 731,-73.47 763.05,-72 802.5,-72 841.95,-72 874,-73.47 874,-75.27 874,-75.27 874,-104.73 874,-104.73"/>
<path fill="none" stroke="red" d="M874,-104.73C874,-102.92 841.95,-101.45 802.5,-101.45 763.05,-101.45 731,-102.92 731,-104.73"/>
<text text-anchor="middle" x="802.5" y="-86.3" font-family="Times,serif" font-size="14.00">CentOS Stream ()</text>
</g>
<!-- rhel -->
<g id="node7" class="node">
<title>rhel</title>
<path fill="none" stroke="red" d="M966.5,-104.73C966.5,-106.53 949.92,-108 929.5,-108 909.08,-108 892.5,-106.53 892.5,-104.73 892.5,-104.73 892.5,-75.27 892.5,-75.27 892.5,-73.47 909.08,-72 929.5,-72 949.92,-72 966.5,-73.47 966.5,-75.27 966.5,-75.27 966.5,-104.73 966.5,-104.73"/>
<path fill="none" stroke="red" d="M966.5,-104.73C966.5,-102.92 949.92,-101.45 929.5,-101.45 909.08,-101.45 892.5,-102.92 892.5,-104.73"/>
<text text-anchor="middle" x="929.5" y="-86.3" font-family="Times,serif" font-size="14.00">RHEL ()</text>
</g>
<!-- zstream -->
<g id="node8" class="node">
<title>zstream</title>
<path fill="none" stroke="red" d="M1074,-104.73C1074,-106.53 1054.05,-108 1029.5,-108 1004.95,-108 985,-106.53 985,-104.73 985,-104.73 985,-75.27 985,-75.27 985,-73.47 1004.95,-72 1029.5,-72 1054.05,-72 1074,-73.47 1074,-75.27 1074,-75.27 1074,-104.73 1074,-104.73"/>
<path fill="none" stroke="red" d="M1074,-104.73C1074,-102.92 1054.05,-101.45 1029.5,-101.45 1004.95,-101.45 985,-102.92 985,-104.73"/>
<text text-anchor="middle" x="1029.5" y="-86.3" font-family="Times,serif" font-size="14.00">zstream ()</text>
</g>
</g>
</svg>
