<?xml version="1.0" encoding="UTF-8" standalone="no"?>
<!DOCTYPE svg PUBLIC "-//W3C//DTD SVG 1.1//EN"
 "http://www.w3.org/Graphics/SVG/1.1/DTD/svg11.dtd">
<!-- Generated by graphviz version 7.1.0 (0)
 -->
<!-- Title: FilterBasic Pages: 1 -->
<svg width="685pt" height="118pt"
 viewBox="0.00 0.00 685.00 118.00" xmlns="http://www.w3.org/2000/svg" xmlns:xlink="http://www.w3.org/1999/xlink">
<g id="graph0" class="graph" transform="scale(1 1) rotate(0) translate(4 114)">
<title>FilterBasic</title>
<polygon fill="white" stroke="none" points="-4,4 -4,-114 681,-114 681,4 -4,4"/>
<!-- root_and -->
<g id="node1" class="node">
<title>root_and</title>
<polygon fill="none" stroke="black" points="283.5,-73.5 283.5,-109.5 337.5,-109.5 337.5,-73.5 283.5,-73.5"/>
<text text-anchor="middle" x="310.5" y="-87.8" font-family="Times,serif" font-size="14.00">&amp;</text>
</g>
<!-- uid_baz -->
<g id="node2" class="node">
<title>uid_baz</title>
<polygon fill="none" stroke="black" points="0,-0.5 0,-36.5 197,-36.5 197,-0.5 0,-0.5"/>
<text text-anchor="middle" x="38" y="-14.8" font-family="Times,serif" font-size="14.00">uid=baz</text>
<polyline fill="none" stroke="black" points="76,-0.5 76,-36.5"/>
<text text-anchor="middle" x="114" y="-14.8" font-family="Times,serif" font-size="14.00">fg 0.033</text>
<polyline fill="none" stroke="black" points="152,-0.5 152,-36.5"/>
<text text-anchor="middle" x="174.5" y="-14.8" font-family="Times,serif" font-size="14.00">t 20</text>
</g>
<!-- root_and&#45;&gt;uid_baz -->
<g id="edge1" class="edge">
<title>root_and&#45;&gt;uid_baz</title>
<path fill="none" stroke="black" d="M283.65,-81.51C252.66,-71.13 200.7,-53.73 159.7,-40"/>
<polygon fill="black" stroke="black" points="161.02,-36.75 150.43,-36.89 158.8,-43.38 161.02,-36.75"/>
</g>
<!-- cn_bar -->
<g id="node3" class="node">
<title>cn_bar</title>
<polygon fill="none" stroke="black" points="215.5,-0.5 215.5,-36.5 405.5,-36.5 405.5,-0.5 215.5,-0.5"/>
<text text-anchor="middle" x="250" y="-14.8" font-family="Times,serif" font-size="14.00">cn=bar</text>
<polyline fill="none" stroke="black" points="284.5,-0.5 284.5,-36.5"/>
<text text-anchor="middle" x="322.5" y="-14.8" font-family="Times,serif" font-size="14.00">fg 0.093</text>
<polyline fill="none" stroke="black" points="360.5,-0.5 360.5,-36.5"/>
<text text-anchor="middle" x="383" y="-14.8" font-family="Times,serif" font-size="14.00">t 30</text>
</g>
<!-- root_and&#45;&gt;cn_bar -->
<g id="edge2" class="edge">
<title>root_and&#45;&gt;cn_bar</title>
<path fill="none" stroke="black" d="M310.5,-73.67C310.5,-65.89 310.5,-56.44 310.5,-47.62"/>
<polygon fill="black" stroke="black" points="314,-47.72 310.5,-37.72 307,-47.72 314,-47.72"/>
</g>
<!-- oc_foo -->
<g id="node4" class="node">
<title>oc_foo</title>
<polygon fill="none" stroke="black" points="424,-0.5 424,-36.5 677,-36.5 677,-0.5 424,-0.5"/>
<text text-anchor="middle" x="490" y="-14.8" font-family="Times,serif" font-size="14.00">objectClass=foo</text>
<polyline fill="none" stroke="black" points="556,-0.5 556,-36.5"/>
<text text-anchor="middle" x="594" y="-14.8" font-family="Times,serif" font-size="14.00">fg 0.066</text>
<polyline fill="none" stroke="black" points="632,-0.5 632,-36.5"/>
<text text-anchor="middle" x="654.5" y="-14.8" font-family="Times,serif" font-size="14.00">t 40</text>
</g>
<!-- root_and&#45;&gt;oc_foo -->
<g id="edge3" class="edge">
<title>root_and&#45;&gt;oc_foo</title>
<path fill="none" stroke="black" d="M337.1,-82.63C371.86,-72.35 433.98,-53.97 482.27,-39.68"/>
<polygon fill="black" stroke="black" points="483.24,-43.05 491.83,-36.86 481.25,-36.34 483.24,-43.05"/>
</g>
</g>
</svg>
