<?xml version="1.0" encoding="UTF-8" standalone="no"?>
<!DOCTYPE svg PUBLIC "-//W3C//DTD SVG 1.1//EN"
 "http://www.w3.org/Graphics/SVG/1.1/DTD/svg11.dtd">
<!-- Generated by graphviz version 7.1.0 (0)
 -->
<!-- Title: FilterComplex Pages: 1 -->
<svg width="1144pt" height="191pt"
 viewBox="0.00 0.00 1144.00 191.00" xmlns="http://www.w3.org/2000/svg" xmlns:xlink="http://www.w3.org/1999/xlink">
<g id="graph0" class="graph" transform="scale(1 1) rotate(0) translate(4 187)">
<title>FilterComplex</title>
<polygon fill="white" stroke="none" points="-4,4 -4,-187 1140,-187 1140,4 -4,4"/>
<!-- root_and -->
<g id="node1" class="node">
<title>root_and</title>
<polygon fill="none" stroke="black" points="631,-146.5 631,-182.5 781,-182.5 781,-146.5 631,-146.5"/>
<text text-anchor="middle" x="645.5" y="-160.8" font-family="Times,serif" font-size="14.00">&amp;</text>
<polyline fill="none" stroke="black" points="660,-146.5 660,-182.5"/>
<text text-anchor="middle" x="698" y="-160.8" font-family="Times,serif" font-size="14.00">fg 0.975</text>
<polyline fill="none" stroke="black" points="736,-146.5 736,-182.5"/>
<text text-anchor="middle" x="758.5" y="-160.8" font-family="Times,serif" font-size="14.00">t 90</text>
</g>
<!-- child_or1 -->
<g id="node2" class="node">
<title>child_or1</title>
<polygon fill="none" stroke="black" points="317,-73.5 317,-109.5 459,-109.5 459,-73.5 317,-73.5"/>
<text text-anchor="middle" x="327.5" y="-87.8" font-family="Times,serif" font-size="14.00">|</text>
<polyline fill="none" stroke="black" points="338,-73.5 338,-109.5"/>
<text text-anchor="middle" x="376" y="-87.8" font-family="Times,serif" font-size="14.00">fg 0.075</text>
<polyline fill="none" stroke="black" points="414,-73.5 414,-109.5"/>
<text text-anchor="middle" x="436.5" y="-87.8" font-family="Times,serif" font-size="14.00">t 90</text>
</g>
<!-- root_and&#45;&gt;child_or1 -->
<g id="edge1" class="edge">
<title>root_and&#45;&gt;child_or1</title>
<path fill="none" stroke="black" d="M631.04,-146.76C582.64,-135.96 519.67,-121.9 469.95,-110.8"/>
<polygon fill="black" stroke="black" points="470.91,-107.43 460.39,-108.66 469.38,-114.26 470.91,-107.43"/>
</g>
<!-- child_not1 -->
<g id="node6" class="node">
<title>child_not1</title>
<polygon fill="none" stroke="black" points="548,-73.5 548,-109.5 692,-109.5 692,-73.5 548,-73.5"/>
<text text-anchor="middle" x="559.5" y="-87.8" font-family="Times,serif" font-size="14.00">!</text>
<polyline fill="none" stroke="black" points="571,-73.5 571,-109.5"/>
<text text-anchor="middle" x="609" y="-87.8" font-family="Times,serif" font-size="14.00">fg 0.975</text>
<polyline fill="none" stroke="black" points="647,-73.5 647,-109.5"/>
<text text-anchor="middle" x="669.5" y="-87.8" font-family="Times,serif" font-size="14.00">t 40</text>
</g>
<!-- root_and&#45;&gt;child_not1 -->
<g id="edge2" class="edge">
<title>root_and&#45;&gt;child_not1</title>
<path fill="none" stroke="black" d="M685.62,-146.67C674.77,-137.72 661.25,-126.55 649.29,-116.68"/>
<polygon fill="black" stroke="black" points="651.64,-114.08 641.7,-110.41 647.18,-119.48 651.64,-114.08"/>
</g>
<!-- sn_pres -->
<g id="node8" class="node">
<title>sn_pres</title>
<polygon fill="none" stroke="black" points="710,-73.5 710,-109.5 874,-109.5 874,-73.5 710,-73.5"/>
<text text-anchor="middle" x="736" y="-87.8" font-family="Times,serif" font-size="14.00">sn=*</text>
<polyline fill="none" stroke="black" points="762,-73.5 762,-109.5"/>
<text text-anchor="middle" x="795.5" y="-87.8" font-family="Times,serif" font-size="14.00">fg 0.75</text>
<polyline fill="none" stroke="black" points="829,-73.5 829,-109.5"/>
<text text-anchor="middle" x="851.5" y="-87.8" font-family="Times,serif" font-size="14.00">t 30</text>
</g>
<!-- root_and&#45;&gt;sn_pres -->
<g id="edge3" class="edge">
<title>root_and&#45;&gt;sn_pres</title>
<path fill="none" stroke="black" d="M726.38,-146.67C737.23,-137.72 750.75,-126.55 762.71,-116.68"/>
<polygon fill="black" stroke="black" points="764.82,-119.48 770.3,-110.41 760.36,-114.08 764.82,-119.48"/>
</g>
<!-- oc_foo -->
<g id="node9" class="node">
<title>oc_foo</title>
<polygon fill="none" stroke="black" points="892,-73.5 892,-109.5 1136,-109.5 1136,-73.5 892,-73.5"/>
<text text-anchor="middle" x="958" y="-87.8" font-family="Times,serif" font-size="14.00">objectClass=foo</text>
<polyline fill="none" stroke="black" points="1024,-73.5 1024,-109.5"/>
<text text-anchor="middle" x="1057.5" y="-87.8" font-family="Times,serif" font-size="14.00">fg 0.05</text>
<polyline fill="none" stroke="black" points="1091,-73.5 1091,-109.5"/>
<text text-anchor="middle" x="1113.5" y="-87.8" font-family="Times,serif" font-size="14.00">t 40</text>
</g>
<!-- root_and&#45;&gt;oc_foo -->
<g id="edge4" class="edge">
<title>root_and&#45;&gt;oc_foo</title>
<path fill="none" stroke="black" d="M779.38,-146.58C824.43,-136.2 882.31,-122.86 929.3,-112.03"/>
<polygon fill="black" stroke="black" points="929.95,-115.47 938.9,-109.81 928.37,-108.65 929.95,-115.47"/>
</g>
<!-- uid_a -->
<g id="node3" class="node">
<title>uid_a</title>
<polygon fill="none" stroke="black" points="0,-0.5 0,-36.5 180,-36.5 180,-0.5 0,-0.5"/>
<text text-anchor="middle" x="29.5" y="-14.8" font-family="Times,serif" font-size="14.00">uid=a</text>
<polyline fill="none" stroke="black" points="59,-0.5 59,-36.5"/>
<text text-anchor="middle" x="97" y="-14.8" font-family="Times,serif" font-size="14.00">fg 0.025</text>
<polyline fill="none" stroke="black" points="135,-0.5 135,-36.5"/>
<text text-anchor="middle" x="157.5" y="-14.8" font-family="Times,serif" font-size="14.00">t 30</text>
</g>
<!-- child_or1&#45;&gt;uid_a -->
<g id="edge5" class="edge">
<title>child_or1&#45;&gt;uid_a</title>
<path fill="none" stroke="black" d="M317,-73.58C273.5,-63.22 217.65,-49.91 172.24,-39.09"/>
<polygon fill="black" stroke="black" points="173.24,-35.73 162.7,-36.82 171.62,-42.54 173.24,-35.73"/>
</g>
<!-- uid_b -->
<g id="node4" class="node">
<title>uid_b</title>
<polygon fill="none" stroke="black" points="198.5,-0.5 198.5,-36.5 379.5,-36.5 379.5,-0.5 198.5,-0.5"/>
<text text-anchor="middle" x="228.5" y="-14.8" font-family="Times,serif" font-size="14.00">uid=b</text>
<polyline fill="none" stroke="black" points="258.5,-0.5 258.5,-36.5"/>
<text text-anchor="middle" x="296.5" y="-14.8" font-family="Times,serif" font-size="14.00">fg 0.025</text>
<polyline fill="none" stroke="black" points="334.5,-0.5 334.5,-36.5"/>
<text text-anchor="middle" x="357" y="-14.8" font-family="Times,serif" font-size="14.00">t 30</text>
</g>
<!-- child_or1&#45;&gt;uid_b -->
<g id="edge6" class="edge">
<title>child_or1&#45;&gt;uid_b</title>
<path fill="none" stroke="black" d="M364.54,-73.67C351.81,-64.54 335.87,-53.11 321.91,-43.11"/>
<polygon fill="black" stroke="black" points="324.03,-40.32 313.87,-37.33 319.95,-46.01 324.03,-40.32"/>
</g>
<!-- uid_c -->
<g id="node5" class="node">
<title>uid_c</title>
<polygon fill="none" stroke="black" points="398,-0.5 398,-36.5 578,-36.5 578,-0.5 398,-0.5"/>
<text text-anchor="middle" x="427.5" y="-14.8" font-family="Times,serif" font-size="14.00">uid=c</text>
<polyline fill="none" stroke="black" points="457,-0.5 457,-36.5"/>
<text text-anchor="middle" x="495" y="-14.8" font-family="Times,serif" font-size="14.00">fg 0.025</text>
<polyline fill="none" stroke="black" points="533,-0.5 533,-36.5"/>
<text text-anchor="middle" x="555.5" y="-14.8" font-family="Times,serif" font-size="14.00">t 30</text>
</g>
<!-- child_or1&#45;&gt;uid_c -->
<g id="edge7" class="edge">
<title>child_or1&#45;&gt;uid_c</title>
<path fill="none" stroke="black" d="M411.7,-73.67C424.56,-64.54 440.66,-53.11 454.75,-43.11"/>
<polygon fill="black" stroke="black" points="456.76,-45.97 462.89,-37.33 452.71,-40.26 456.76,-45.97"/>
</g>
<!-- cn_bar -->
<g id="node7" class="node">
<title>cn_bar</title>
<polygon fill="none" stroke="black" points="596,-0.5 596,-36.5 786,-36.5 786,-0.5 596,-0.5"/>
<text text-anchor="middle" x="630.5" y="-14.8" font-family="Times,serif" font-size="14.00">cn=bar</text>
<polyline fill="none" stroke="black" points="665,-0.5 665,-36.5"/>
<text text-anchor="middle" x="703" y="-14.8" font-family="Times,serif" font-size="14.00">fg 0.025</text>
<polyline fill="none" stroke="black" points="741,-0.5 741,-36.5"/>
<text text-anchor="middle" x="763.5" y="-14.8" font-family="Times,serif" font-size="14.00">t 30</text>
</g>
<!-- child_not1&#45;&gt;cn_bar -->
<g id="edge8" class="edge">
<title>child_not1&#45;&gt;cn_bar</title>
<path fill="none" stroke="black" d="M636.83,-73.67C645.67,-64.83 656.67,-53.83 666.45,-44.05"/>
<polygon fill="black" stroke="black" points="668.63,-46.82 673.22,-37.28 663.68,-41.87 668.63,-46.82"/>
</g>
</g>
</svg>
