<?xml version="1.0" encoding="UTF-8" standalone="no"?>
<!DOCTYPE svg PUBLIC "-//W3C//DTD SVG 1.1//EN"
 "http://www.w3.org/Graphics/SVG/1.1/DTD/svg11.dtd">
<!-- Generated by graphviz version 7.1.0 (0)
 -->
<!-- Title: FilterComplex Pages: 1 -->
<svg width="500pt" height="191pt"
 viewBox="0.00 0.00 499.50 191.00" xmlns="http://www.w3.org/2000/svg" xmlns:xlink="http://www.w3.org/1999/xlink">
<g id="graph0" class="graph" transform="scale(1 1) rotate(0) translate(4 187)">
<title>FilterComplex</title>
<polygon fill="white" stroke="none" points="-4,4 -4,-187 495.5,-187 495.5,4 -4,4"/>
<!-- root_and -->
<g id="node1" class="node">
<title>root_and</title>
<polygon fill="none" stroke="black" points="251.5,-146.5 251.5,-182.5 305.5,-182.5 305.5,-146.5 251.5,-146.5"/>
<text text-anchor="middle" x="278.5" y="-160.8" font-family="Times,serif" font-size="14.00">&amp;</text>
</g>
<!-- child_or1 -->
<g id="node2" class="node">
<title>child_or1</title>
<polygon fill="none" stroke="black" points="119.5,-73.5 119.5,-109.5 173.5,-109.5 173.5,-73.5 119.5,-73.5"/>
<text text-anchor="middle" x="146.5" y="-87.8" font-family="Times,serif" font-size="14.00">|</text>
</g>
<!-- root_and&#45;&gt;child_or1 -->
<g id="edge1" class="edge">
<title>root_and&#45;&gt;child_or1</title>
<path fill="none" stroke="black" d="M251.79,-149.13C232.02,-138.5 204.85,-123.89 183.07,-112.17"/>
<polygon fill="black" stroke="black" points="184.97,-109.22 174.51,-107.56 181.65,-115.38 184.97,-109.22"/>
</g>
<!-- child_not1 -->
<g id="node6" class="node">
<title>child_not1</title>
<polygon fill="none" stroke="black" points="215.5,-73.5 215.5,-109.5 269.5,-109.5 269.5,-73.5 215.5,-73.5"/>
<text text-anchor="middle" x="242.5" y="-87.8" font-family="Times,serif" font-size="14.00">!</text>
</g>
<!-- root_and&#45;&gt;child_not1 -->
<g id="edge2" class="edge">
<title>root_and&#45;&gt;child_not1</title>
<path fill="none" stroke="black" d="M269.97,-146.67C265.84,-138.54 260.79,-128.58 256.15,-119.42"/>
<polygon fill="black" stroke="black" points="259.3,-117.89 251.65,-110.56 253.06,-121.06 259.3,-117.89"/>
</g>
<!-- sn_pres -->
<g id="node8" class="node">
<title>sn_pres</title>
<polygon fill="none" stroke="black" points="287.5,-73.5 287.5,-109.5 341.5,-109.5 341.5,-73.5 287.5,-73.5"/>
<text text-anchor="middle" x="314.5" y="-87.8" font-family="Times,serif" font-size="14.00">sn=*</text>
</g>
<!-- root_and&#45;&gt;sn_pres -->
<g id="edge3" class="edge">
<title>root_and&#45;&gt;sn_pres</title>
<path fill="none" stroke="black" d="M287.03,-146.67C291.16,-138.54 296.21,-128.58 300.85,-119.42"/>
<polygon fill="black" stroke="black" points="303.94,-121.06 305.35,-110.56 297.7,-117.89 303.94,-121.06"/>
</g>
<!-- oc_foo -->
<g id="node9" class="node">
<title>oc_foo</title>
<polygon fill="none" stroke="black" points="359.5,-73.5 359.5,-109.5 491.5,-109.5 491.5,-73.5 359.5,-73.5"/>
<text text-anchor="middle" x="425.5" y="-87.8" font-family="Times,serif" font-size="14.00">objectClass=foo</text>
</g>
<!-- root_and&#45;&gt;oc_foo -->
<g id="edge4" class="edge">
<title>root_and&#45;&gt;oc_foo</title>
<path fill="none" stroke="black" d="M305.46,-150.48C326.35,-140.39 355.75,-126.19 380.23,-114.36"/>
<polygon fill="black" stroke="black" points="381.54,-117.62 389.02,-110.12 378.49,-111.32 381.54,-117.62"/>
</g>
<!-- uid_a -->
<g id="node3" class="node">
<title>uid_a</title>
<polygon fill="none" stroke="black" points="0,-0.5 0,-36.5 59,-36.5 59,-0.5 0,-0.5"/>
<text text-anchor="middle" x="29.5" y="-14.8" font-family="Times,serif" font-size="14.00">uid=a</text>
</g>
<!-- child_or1&#45;&gt;uid_a -->
<g id="edge5" class="edge">
<title>child_or1&#45;&gt;uid_a</title>
<path fill="none" stroke="black" d="M119.66,-74.21C104.09,-64.77 84.25,-52.72 67.14,-42.34"/>
<polygon fill="black" stroke="black" points="69.1,-39.44 58.73,-37.24 65.47,-45.42 69.1,-39.44"/>
</g>
<!-- uid_b -->
<g id="node4" class="node">
<title>uid_b</title>
<polygon fill="none" stroke="black" points="77.5,-0.5 77.5,-36.5 137.5,-36.5 137.5,-0.5 77.5,-0.5"/>
<text text-anchor="middle" x="107.5" y="-14.8" font-family="Times,serif" font-size="14.00">uid=b</text>
</g>
<!-- child_or1&#45;&gt;uid_b -->
<g id="edge6" class="edge">
<title>child_or1&#45;&gt;uid_b</title>
<path fill="none" stroke="black" d="M137.26,-73.67C132.74,-65.45 127.2,-55.36 122.12,-46.12"/>
<polygon fill="black" stroke="black" points="125.29,-44.61 117.4,-37.53 119.15,-47.98 125.29,-44.61"/>
</g>
<!-- uid_c -->
<g id="node5" class="node">
<title>uid_c</title>
<polygon fill="none" stroke="black" points="156,-0.5 156,-36.5 215,-36.5 215,-0.5 156,-0.5"/>
<text text-anchor="middle" x="185.5" y="-14.8" font-family="Times,serif" font-size="14.00">uid=c</text>
</g>
<!-- child_or1&#45;&gt;uid_c -->
<g id="edge7" class="edge">
<title>child_or1&#45;&gt;uid_c</title>
<path fill="none" stroke="black" d="M155.74,-73.67C160.26,-65.45 165.8,-55.36 170.88,-46.12"/>
<polygon fill="black" stroke="black" points="173.85,-47.98 175.6,-37.53 167.71,-44.61 173.85,-47.98"/>
</g>
<!-- cn_bar -->
<g id="node7" class="node">
<title>cn_bar</title>
<polygon fill="none" stroke="black" points="233,-0.5 233,-36.5 302,-36.5 302,-0.5 233,-0.5"/>
<text text-anchor="middle" x="267.5" y="-14.8" font-family="Times,serif" font-size="14.00">cn=bar</text>
</g>
<!-- child_not1&#45;&gt;cn_bar -->
<g id="edge8" class="edge">
<title>child_not1&#45;&gt;cn_bar</title>
<path fill="none" stroke="black" d="M248.42,-73.67C251.23,-65.72 254.65,-56.01 257.81,-47.02"/>
<polygon fill="black" stroke="black" points="261.1,-48.23 261.12,-37.63 254.49,-45.9 261.1,-48.23"/>
</g>
</g>
</svg>
