<?xml version="1.0" encoding="UTF-8" standalone="no"?>
<!DOCTYPE svg PUBLIC "-//W3C//DTD SVG 1.1//EN"
 "http://www.w3.org/Graphics/SVG/1.1/DTD/svg11.dtd">
<!-- Generated by graphviz version 7.1.0 (0)
 -->
<!-- Title: FilterBasic Pages: 1 -->
<svg width="322pt" height="118pt"
 viewBox="0.00 0.00 322.00 118.00" xmlns="http://www.w3.org/2000/svg" xmlns:xlink="http://www.w3.org/1999/xlink">
<g id="graph0" class="graph" transform="scale(1 1) rotate(0) translate(4 114)">
<title>FilterBasic</title>
<polygon fill="white" stroke="none" points="-4,4 -4,-114 318,-114 318,4 -4,4"/>
<!-- root_and -->
<g id="node1" class="node">
<title>root_and</title>
<polygon fill="none" stroke="black" points="102,-73.5 102,-109.5 156,-109.5 156,-73.5 102,-73.5"/>
<text text-anchor="middle" x="129" y="-87.8" font-family="Times,serif" font-size="14.00">&amp;</text>
</g>
<!-- uid_baz -->
<g id="node2" class="node">
<title>uid_baz</title>
<polygon fill="none" stroke="black" points="0,-0.5 0,-36.5 76,-36.5 76,-0.5 0,-0.5"/>
<text text-anchor="middle" x="38" y="-14.8" font-family="Times,serif" font-size="14.00">uid=baz</text>
</g>
<!-- root_and&#45;&gt;uid_baz -->
<g id="edge1" class="edge">
<title>root_and&#45;&gt;uid_baz</title>
<path fill="none" stroke="black" d="M107.43,-73.67C95.85,-64.63 81.36,-53.33 68.63,-43.39"/>
<polygon fill="black" stroke="black" points="70.96,-40.77 60.92,-37.38 66.65,-46.29 70.96,-40.77"/>
</g>
<!-- cn_bar -->
<g id="node3" class="node">
<title>cn_bar</title>
<polygon fill="none" stroke="black" points="94.5,-0.5 94.5,-36.5 163.5,-36.5 163.5,-0.5 94.5,-0.5"/>
<text text-anchor="middle" x="129" y="-14.8" font-family="Times,serif" font-size="14.00">cn=bar</text>
</g>
<!-- root_and&#45;&gt;cn_bar -->
<g id="edge2" class="edge">
<title>root_and&#45;&gt;cn_bar</title>
<path fill="none" stroke="black" d="M129,-73.67C129,-65.89 129,-56.44 129,-47.62"/>
<polygon fill="black" stroke="black" points="132.5,-47.72 129,-37.72 125.5,-47.72 132.5,-47.72"/>
</g>
<!-- oc_foo -->
<g id="node4" class="node">
<title>oc_foo</title>
<polygon fill="none" stroke="black" points="182,-0.5 182,-36.5 314,-36.5 314,-0.5 182,-0.5"/>
<text text-anchor="middle" x="248" y="-14.8" font-family="Times,serif" font-size="14.00">objectClass=foo</text>
</g>
<!-- root_and&#45;&gt;oc_foo -->
<g id="edge3" class="edge">
<title>root_and&#45;&gt;oc_foo</title>
<path fill="none" stroke="black" d="M155.71,-74.57C171.78,-64.98 192.5,-52.62 210.23,-42.04"/>
<polygon fill="black" stroke="black" points="211.63,-45.28 218.42,-37.15 208.04,-39.26 211.63,-45.28"/>
</g>
</g>
</svg>
