<?xml version="1.0" encoding="UTF-8" standalone="no"?>
<!DOCTYPE svg PUBLIC "-//W3C//DTD SVG 1.1//EN"
 "http://www.w3.org/Graphics/SVG/1.1/DTD/svg11.dtd">
<!-- Generated by graphviz version 7.1.0 (0)
 -->
<!-- Title: FilterBasic Pages: 1 -->
<svg width="591pt" height="118pt"
 viewBox="0.00 0.00 591.00 118.00" xmlns="http://www.w3.org/2000/svg" xmlns:xlink="http://www.w3.org/1999/xlink">
<g id="graph0" class="graph" transform="scale(1 1) rotate(0) translate(4 114)">
<title>FilterBasic</title>
<polygon fill="white" stroke="none" points="-4,4 -4,-114 587,-114 587,4 -4,4"/>
<!-- root_and -->
<g id="node1" class="node">
<title>root_and</title>
<polygon fill="none" stroke="black" points="236.5,-73.5 236.5,-109.5 290.5,-109.5 290.5,-73.5 236.5,-73.5"/>
<text text-anchor="middle" x="263.5" y="-87.8" font-family="Times,serif" font-size="14.00">&amp;</text>
</g>
<!-- uid_baz -->
<g id="node2" class="node">
<title>uid_baz</title>
<polygon fill="none" stroke="black" points="0,-0.5 0,-36.5 169,-36.5 169,-0.5 0,-0.5"/>
<text text-anchor="middle" x="38" y="-14.8" font-family="Times,serif" font-size="14.00">uid=baz</text>
<polyline fill="none" stroke="black" points="76,-0.5 76,-36.5"/>
<text text-anchor="middle" x="98.5" y="-14.8" font-family="Times,serif" font-size="14.00">t 20</text>
<polyline fill="none" stroke="black" points="121,-0.5 121,-36.5"/>
<text text-anchor="middle" x="145" y="-14.8" font-family="Times,serif" font-size="14.00">u 15</text>
</g>
<!-- root_and&#45;&gt;uid_baz -->
<g id="edge1" class="edge">
<title>root_and&#45;&gt;uid_baz</title>
<path fill="none" stroke="black" d="M236.7,-79.87C210.56,-69.5 170.09,-53.45 137.45,-40.5"/>
<polygon fill="black" stroke="black" points="139.14,-37.41 128.56,-36.98 136.56,-43.92 139.14,-37.41"/>
</g>
<!-- cn_bar -->
<g id="node3" class="node">
<title>cn_bar</title>
<polygon fill="none" stroke="black" points="187,-0.5 187,-36.5 340,-36.5 340,-0.5 187,-0.5"/>
<text text-anchor="middle" x="221.5" y="-14.8" font-family="Times,serif" font-size="14.00">cn=bar</text>
<polyline fill="none" stroke="black" points="256,-0.5 256,-36.5"/>
<text text-anchor="middle" x="278.5" y="-14.8" font-family="Times,serif" font-size="14.00">t 30</text>
<polyline fill="none" stroke="black" points="301,-0.5 301,-36.5"/>
<text text-anchor="middle" x="320.5" y="-14.8" font-family="Times,serif" font-size="14.00">u 8</text>
</g>
<!-- root_and&#45;&gt;cn_bar -->
<g id="edge2" class="edge">
<title>root_and&#45;&gt;cn_bar</title>
<path fill="none" stroke="black" d="M263.5,-73.67C263.5,-65.89 263.5,-56.44 263.5,-47.62"/>
<polygon fill="black" stroke="black" points="267,-47.72 263.5,-37.72 260,-47.72 267,-47.72"/>
</g>
<!-- oc_foo -->
<g id="node4" class="node">
<title>oc_foo</title>
<polygon fill="none" stroke="black" points="358,-0.5 358,-36.5 583,-36.5 583,-0.5 358,-0.5"/>
<text text-anchor="middle" x="424" y="-14.8" font-family="Times,serif" font-size="14.00">objectClass=foo</text>
<polyline fill="none" stroke="black" points="490,-0.5 490,-36.5"/>
<text text-anchor="middle" x="512.5" y="-14.8" font-family="Times,serif" font-size="14.00">t 40</text>
<polyline fill="none" stroke="black" points="535,-0.5 535,-36.5"/>
<text text-anchor="middle" x="559" y="-14.8" font-family="Times,serif" font-size="14.00">u 15</text>
</g>
<!-- root_and&#45;&gt;oc_foo -->
<g id="edge3" class="edge">
<title>root_and&#45;&gt;oc_foo</title>
<path fill="none" stroke="black" d="M290.14,-81.36C320.34,-71 370.56,-53.78 410.35,-40.13"/>
<polygon fill="black" stroke="black" points="411.25,-43.52 419.58,-36.97 408.98,-36.9 411.25,-43.52"/>
</g>
</g>
</svg>
